<?xml version="1.0" standalone="no"?>
<!DOCTYPE svg PUBLIC "-//W3C//DTD SVG 1.1//EN" "http://www.w3.org/Graphics/SVG/1.1/DTD/svg11.dtd" >
<svg xmlns="http://www.w3.org/2000/svg" xmlns:xlink="http://www.w3.org/1999/xlink" version="1.1">
<metadata>
Created by FontForge 20170731 at Wed Nov  3 16:08:23 2021
 By Aleksey,,,
Copyright (c) Nothing. All rights reserved.
</metadata>
<defs>
<font id="NType82-Regular" horiz-adv-x="600" >
  <font-face 
    font-family="NType 82"
    font-weight="100"
    font-stretch="normal"
    units-per-em="1000"
    panose-1="2 6 5 6 5 4 2 4 1 3"
    ascent="800"
    descent="-200"
    x-height="474"
    cap-height="700"
    bbox="-365 -202 876 926"
    underline-thickness="50"
    underline-position="-150"
    unicode-range="U+0020-2212"
  />
<missing-glyph horiz-adv-x="412" 
d="M387 0h-362v700h362v-700zM111 40h190q40 0 40 40v540q0 40 -40 40h-190q-40 0 -40 -40v-540q0 -40 40 -40z" />
    <glyph glyph-name="f_i" unicode="fi" horiz-adv-x="613" 
d="M536 44h59v-44h-252v44h49q40 0 40 40v306q0 40 -40 40h-161q-40 0 -40 -40v-306q0 -40 40 -40h69v-44h-252v44h39q40 0 40 40v306q0 40 -40 40h-75v44h55q60 0 60 60v12q0 89 54 147.5t141 58.5q63 0 111.5 -32.5t48.5 -86.5q0 -27 -15 -42t-38 -15q-22 0 -36.5 14
t-14.5 37q0 35 31 48v7q-31 26 -83 26q-60 0 -97.5 -39.5t-37.5 -102.5v-92h305v-390q0 -40 40 -40z" />
    <glyph glyph-name="f_l" unicode="fl" horiz-adv-x="593" 
d="M310 0h-262v44h39q40 0 40 40v306q0 40 -40 40h-75v44h55q60 0 60 60v12q0 96 50.5 151t144.5 55q35 0 74 -14.5t57 -37.5h43v-616q0 -40 40 -40h39v-44h-222v44h39q40 0 40 40v505q0 63 -32.5 93t-78.5 30q-56 0 -93 -38.5t-37 -107.5v-92h149v-44h-109q-40 0 -40 -40
v-306q0 -40 40 -40h79v-44z" />
    <glyph glyph-name=".notdef" horiz-adv-x="412" 
d="M387 0h-362v700h362v-700zM111 40h190q40 0 40 40v540q0 40 -40 40h-190q-40 0 -40 -40v-540q0 -40 40 -40z" />
    <glyph glyph-name=".null" horiz-adv-x="0" 
 />
    <glyph glyph-name="nonmarkingreturn" horiz-adv-x="333" 
 />
    <glyph glyph-name="space" unicode=" " horiz-adv-x="158" 
 />
    <glyph glyph-name="exclam" unicode="!" horiz-adv-x="202" 
d="M123 208h-44v64q0 70 -10 221t-10 159q0 26 11.5 40.5t30.5 14.5q42 0 42 -55q0 -8 -10 -159t-10 -221v-64zM101 -4q-22 0 -36.5 14.5t-14.5 36.5t14.5 36.5t36.5 14.5t36.5 -14.5t14.5 -36.5t-14.5 -36.5t-36.5 -14.5z" />
    <glyph glyph-name="quotedbl" unicode="&#x22;" horiz-adv-x="360" 
d="M117 458h-25q-27 139 -27 203q0 17 11 30t29 13t29 -13t11 -30q0 -69 -28 -203zM267 458h-25q-27 139 -27 203q0 17 11 30t29 13t29 -13t11 -30q0 -69 -28 -203z" />
    <glyph glyph-name="numbersign" unicode="#" horiz-adv-x="638" 
d="M614 518v-44h-128l-22 -248h140v-44h-143l-21 -242h-47l21 242h-218l-21 -242h-47l21 242h-125v44h128l22 248h-140v44h143l21 242h47l-21 -242h218l21 242h47l-21 -242h125zM199 226h218l22 248h-218z" />
    <glyph glyph-name="dollar" unicode="$" horiz-adv-x="541" 
d="M491 171q0 -89 -57 -135.5t-143 -47.5v-83h-42v85q-83 8 -143 74l-12 -11v-53h-44v270h44l4 -34q22 -184 151 -202v292l-48 23q-140 67 -140 176q0 86 51.5 135t136.5 51v84h42v-86q43 -6 72.5 -25.5t56.5 -54.5l16 11v60h44v-249h-44l-3 11q-24 87 -54.5 137.5
t-87.5 63.5v-277l47 -23q153 -74 153 -192zM237 412l12 -6v261q-50 -2 -84 -33t-34 -84q0 -87 106 -138zM291 306v-274q56 4 92.5 35.5t36.5 90.5q0 49 -33 82.5t-96 65.5z" />
    <glyph glyph-name="percent" unicode="%" 
d="M161 376q-56 0 -90.5 46t-34.5 116t34.5 116t90.5 46t90.5 -46t34.5 -116t-34.5 -116t-90.5 -46zM161 412q37 0 51.5 25t14.5 89v24q0 64 -14.5 89t-51.5 25t-51.5 -25t-14.5 -89v-24q0 -64 14.5 -89t51.5 -25zM542 539l-460 -404l-24 26l460 404zM439 0q-56 0 -90.5 46
t-34.5 116t34.5 116t90.5 46t90.5 -46t34.5 -116t-34.5 -116t-90.5 -46zM439 36q37 0 51.5 25t14.5 89v24q0 64 -14.5 89t-51.5 25t-51.5 -25t-14.5 -89v-24q0 -64 14.5 -89t51.5 -25z" />
    <glyph glyph-name="ampersand" unicode="&#x26;" horiz-adv-x="584" 
d="M556 326h-42q-36 0 -40 -34q-19 -127 -59 -196q37 -52 101 -52h40v-44h-161l-25 41q-58 -53 -153 -53q-79 0 -133 52t-54 139q0 137 131 206l-10 17q-56 91 -56 146q0 67 41 115.5t115 48.5q67 0 108.5 -38.5t41.5 -103.5q0 -110 -160 -190l146 -240q29 57 42 151
q5 35 -29 35h-53v44h209v-44zM251 668q-39 0 -65 -28.5t-26 -67.5q0 -60 32 -112l27 -43q66 39 95 73t29 82q0 44 -26 70t-66 26zM237 41q65 0 108 41l-161 265q-90 -63 -90 -160v-20q0 -53 39.5 -89.5t103.5 -36.5z" />
    <glyph glyph-name="quotesingle" unicode="'" horiz-adv-x="210" 
d="M117 458h-25q-27 139 -27 203q0 17 11 30t29 13t29 -13t11 -30q0 -69 -28 -203z" />
    <glyph glyph-name="parenleft" unicode="(" horiz-adv-x="288" 
d="M278 -158l-21 -32q-227 124 -227 485t227 485l21 -32q-89 -62 -133.5 -147.5t-44.5 -230.5v-150q0 -140 45 -228.5t133 -149.5z" />
    <glyph glyph-name="parenright" unicode=")" horiz-adv-x="288" 
d="M31 -190l-21 32q88 61 133 149.5t45 228.5v150q0 145 -44.5 230.5t-133.5 147.5l21 32q227 -124 227 -485t-227 -485z" />
    <glyph glyph-name="asterisk" unicode="*" horiz-adv-x="468" 
d="M395 620l23 -39l-146 -80l146 -80l-23 -39l-142 87l4 -167h-46l3 166l-141 -86l-23 39l146 80l-146 80l23 39l141 -86l-3 166h46l-4 -166z" />
    <glyph glyph-name="plus" unicode="+" horiz-adv-x="406" 
d="M227 305h165v-48h-165v-165h-48v165h-165v48h165v165h48v-165z" />
    <glyph glyph-name="comma" unicode="," horiz-adv-x="190" 
d="M59 -108l-16 -9l-16 28l13 7q52 30 52 78q-23 0 -37 14.5t-14 36.5q0 23 15 37t35 14q24 0 39 -18.5t15 -51.5q0 -87 -86 -136z" />
    <glyph glyph-name="hyphen" unicode="-" horiz-adv-x="256" 
d="M242 257h-228v48h228v-48z" />
    <glyph glyph-name="period" unicode="." horiz-adv-x="182" 
d="M91 -4q-22 0 -36.5 14.5t-14.5 36.5t14.5 36.5t36.5 14.5t36.5 -14.5t14.5 -36.5t-14.5 -36.5t-36.5 -14.5z" />
    <glyph glyph-name="slash" unicode="/" horiz-adv-x="268" 
d="M58 -100h-48l200 900h48z" />
    <glyph glyph-name="zero" unicode="0" horiz-adv-x="508" 
d="M254 -12q-101 0 -162.5 103t-61.5 259t62 259t162 103q101 0 162.5 -103t61.5 -259t-62 -259t-162 -103zM254 32q44 0 71.5 23.5t44 88.5t16.5 176v60q0 111 -16.5 176t-44 88.5t-71.5 23.5t-71.5 -23.5t-44 -88.5t-16.5 -176v-60q0 -111 16.5 -176t44 -88.5t71.5 -23.5z
" />
    <glyph glyph-name="one" unicode="1" horiz-adv-x="422" 
d="M390 0h-368v44h117q40 0 40 40v434q0 40 -40 40h-117v44h97q50 0 65 23.5t15 74.5h44v-616q0 -40 40 -40h107v-44z" />
    <glyph glyph-name="two" unicode="2" horiz-adv-x="466" 
d="M102 64h208q62 0 62 70h44v-134h-382v44l194 251q102 132 102 240q0 65 -33.5 99t-82.5 34q-68 0 -103 -38v-10q37 -15 37 -57q0 -27 -16 -44t-41 -17q-26 0 -42.5 18t-16.5 49q0 55 53.5 99t140.5 44q93 0 142.5 -51t49.5 -130q0 -121 -88 -214q-67 -71 -159 -170
l-69 -75v-8z" />
    <glyph glyph-name="three" unicode="3" horiz-adv-x="502" 
d="M312 369v-7q64 -12 104.5 -56t40.5 -111q0 -94 -62.5 -150.5t-150.5 -56.5q-87 0 -142 49t-55 123q0 33 17.5 51.5t43.5 18.5q24 0 37.5 -15t13.5 -35q0 -27 -15.5 -42.5t-42.5 -15.5l-4 -5q12 -35 51.5 -60t89.5 -25q55 0 93 34t38 107v24q0 67 -37 103t-104 36h-38v52
h48q50 0 87 38.5t37 93.5v24q0 56 -34 90t-95 34q-46 0 -81 -21.5t-46 -52.5l4 -5q27 0 42.5 -15.5t15.5 -42.5q0 -20 -14 -35t-37 -15q-26 0 -43.5 18.5t-17.5 51.5q0 70 50 115.5t133 45.5q87 0 144 -49t57 -128q0 -118 -128 -166z" />
    <glyph glyph-name="four" unicode="4" horiz-adv-x="488" 
d="M470 232v-44h-87v-104q0 -40 40 -40h47v-44h-238v44h47q40 0 40 40v104h-277v44l307 468h34v-468h87zM312 564l-212 -325l7 -7h212v325z" />
    <glyph glyph-name="five" unicode="5" horiz-adv-x="473" 
d="M241 446q91 0 145.5 -65.5t54.5 -162.5q0 -96 -64 -163t-162 -67q-79 0 -131 41t-52 107q0 30 18 49.5t47 19.5q22 0 39 -15t17 -40q0 -45 -52 -60l-6 -6q9 -21 44.5 -36.5t74.5 -15.5q57 0 100 44t43 132v20q0 83 -36.5 123t-94.5 40q-39 0 -65.5 -15.5t-49.5 -53.5
l-49 11l35 303l7 64h208q22 0 36 14t14 36h44v-114h-261l-33 -243l7 -3q45 56 122 56z" />
    <glyph glyph-name="six" unicode="6" horiz-adv-x="507" 
d="M255 -12q-116 0 -170.5 88t-54.5 241q0 176 65.5 285.5t181.5 109.5q70 0 118 -37t48 -85q0 -29 -15.5 -46t-40.5 -17q-23 0 -38.5 15t-15.5 37q0 35 30 54l3 6q-26 29 -89 29q-84 0 -129 -84t-46 -229l9 -2q13 41 55 69t102 28q94 0 147.5 -63.5t53.5 -158.5
q0 -99 -57.5 -169.5t-156.5 -70.5zM254 32q61 0 96 49.5t35 137.5t-35 137.5t-96 49.5t-98.5 -50t-37.5 -137t37.5 -137t98.5 -50z" />
    <glyph glyph-name="seven" unicode="7" horiz-adv-x="441" 
d="M198 -12q-39 0 -39 56q0 92 36.5 229.5t91.5 237.5l66 120l-4 5h-202q-70 0 -70 -86h-44v150h388v-34l-93 -171q-42 -76 -63.5 -168t-24.5 -146t-3 -137q0 -56 -39 -56z" />
    <glyph glyph-name="eight" unicode="8" horiz-adv-x="472" 
d="M238 -12q-91 0 -148.5 51.5t-57.5 135.5q0 63 33 118t81 75v7q-52 24 -75 68.5t-23 90.5q0 77 50 127.5t131 50.5q74 0 123 -45.5t49 -114.5q0 -113 -93 -180v-7q50 -25 91 -70.5t41 -109.5q0 -84 -55 -140.5t-147 -56.5zM206 414l67 -32q74 69 74 164q0 59 -37 90.5
t-86 31.5q-46 0 -80 -34.5t-34 -93.5q0 -81 96 -126zM238 32q59 0 96.5 40t37.5 104q0 57 -34 89.5t-104 65.5l-53 25q-39 -25 -67 -76t-28 -100q0 -70 46.5 -109t105.5 -39z" />
    <glyph glyph-name="nine" unicode="9" horiz-adv-x="507" 
d="M230 -12q-70 0 -118 37t-48 85q0 29 15.5 46t40.5 17q23 0 38.5 -15t15.5 -37q0 -35 -30 -54l-3 -6q26 -29 89 -29q84 0 129 84t46 229l-9 2q-13 -41 -55 -69t-102 -28q-94 0 -147.5 63.5t-53.5 158.5q0 99 57.5 169.5t156.5 70.5q116 0 170.5 -88t54.5 -241
q0 -176 -65.5 -285.5t-181.5 -109.5zM253 294q61 0 98.5 50t37.5 137t-37.5 137t-98.5 50t-96 -49.5t-35 -137.5t35 -137.5t96 -49.5z" />
    <glyph glyph-name="colon" unicode=":" horiz-adv-x="182" 
d="M91 385q-22 0 -36.5 14.5t-14.5 36.5t14.5 36.5t36.5 14.5t36.5 -14.5t14.5 -36.5t-14.5 -36.5t-36.5 -14.5zM91 -4q-22 0 -36.5 14.5t-14.5 36.5t14.5 36.5t36.5 14.5t36.5 -14.5t14.5 -36.5t-14.5 -36.5t-36.5 -14.5z" />
    <glyph glyph-name="semicolon" unicode=";" horiz-adv-x="187" 
d="M88 385q-22 0 -36.5 14.5t-14.5 36.5t14.5 36.5t36.5 14.5t36.5 -14.5t14.5 -36.5t-14.5 -36.5t-36.5 -14.5zM56 -108l-16 -9l-16 28l13 7q52 30 52 78q-23 0 -37 14.5t-14 36.5q0 23 15 37t35 14q24 0 39 -18.5t15 -51.5q0 -87 -86 -136z" />
    <glyph glyph-name="less" unicode="&#x3c;" horiz-adv-x="426" 
d="M24 305l378 180v-51l-329 -153l329 -153v-51l-378 180v48z" />
    <glyph glyph-name="equal" unicode="=" horiz-adv-x="406" 
d="M392 357h-378v48h378v-48zM392 157h-378v48h378v-48z" />
    <glyph glyph-name="greater" unicode="&#x3e;" horiz-adv-x="426" 
d="M24 431v54l378 -180v-48l-378 -180v54l322 150z" />
    <glyph glyph-name="question" unicode="?" horiz-adv-x="428" 
d="M228 208h-44v163q73 0 119 45.5t46 117.5q0 64 -39 99t-102 35q-72 0 -107 -37v-8q28 -20 28 -54q0 -25 -15.5 -40.5t-38.5 -15.5q-24 0 -39.5 16.5t-15.5 45.5q0 54 56.5 95.5t132.5 41.5q83 0 140 -51.5t57 -139.5q0 -90 -54.5 -145.5t-123.5 -64.5v-103zM208 -4
q-22 0 -36.5 14.5t-14.5 36.5t14.5 36.5t36.5 14.5t36.5 -14.5t14.5 -36.5t-14.5 -36.5t-36.5 -14.5z" />
    <glyph glyph-name="at" unicode="@" horiz-adv-x="582" 
d="M350 88q-83 0 -132 65.5t-49 164.5q0 94 50 161t131 67q32 0 58 -12t36.5 -23t24.5 -29h7v23q0 77 -47.5 120t-118.5 43q-96 0 -159 -75.5t-63 -187.5v-170q0 -114 65 -191.5t167 -77.5q143 0 186 92h44q-63 -136 -230 -136q-132 0 -212 102.5t-80 292.5q0 189 78.5 292
t203.5 103q106 0 167 -62t61 -164v-386h-32l-23 65h-7q-15 -29 -51.5 -53t-74.5 -24zM354 132q51 0 86 42t35 128v30q0 86 -35 128t-86 42t-86 -42t-35 -128v-30q0 -86 35 -128t86 -42z" />
    <glyph glyph-name="A" unicode="A" horiz-adv-x="641" 
d="M593 44h32v-44h-235v44h33q45 0 30 50l-33 108h-227l-32 -108q-7 -23 3 -36.5t33 -13.5h39v-44h-220v44h29q55 0 71 52l181 604h42l183 -605q15 -51 71 -51zM304 571l-97 -325h200l-98 325h-5z" />
    <glyph glyph-name="B" unicode="B" horiz-adv-x="557" 
d="M385 390v-8q47 -6 86.5 -53t39.5 -125q0 -99 -56 -151.5t-163 -52.5h-267v44h47q40 0 40 40v532q0 40 -40 40h-47v44h254q96 0 154 -42t58 -116v-11q0 -60 -31.5 -94t-74.5 -47zM281 656h-65q-40 0 -40 -40v-210h123q53 0 89.5 32.5t36.5 81.5v24q0 49 -42 80.5
t-102 31.5zM435 187v32q0 68 -41.5 105.5t-107.5 37.5h-110v-278q0 -40 40 -40h62q70 0 113.5 36.5t43.5 106.5z" />
    <glyph glyph-name="C" unicode="C" horiz-adv-x="543" 
d="M296 -12q-115 0 -190.5 101.5t-75.5 260.5q0 155 77 258.5t196 103.5q96 0 150 -64l14 9v43h44v-258h-44q-35 127 -67.5 176.5t-103.5 49.5q-32 0 -61.5 -14t-57.5 -44.5t-44.5 -89.5t-16.5 -140v-60q0 -288 186 -288q73 0 118.5 49t49.5 145h44q-5 -125 -67.5 -181.5
t-150.5 -56.5z" />
    <glyph glyph-name="D" unicode="D" horiz-adv-x="567" 
d="M261 0h-236v44h47q40 0 40 40v532q0 40 -40 40h-47v44h236q128 0 202 -94.5t74 -255.5t-75 -255.5t-201 -94.5zM216 44h25q91 0 150.5 66.5t59.5 209.5v60q0 276 -195 276h-40q-40 0 -40 -40v-532q0 -40 40 -40z" />
    <glyph glyph-name="E" unicode="E" horiz-adv-x="518" 
d="M493 0h-468v44h47q40 0 40 40v532q0 40 -40 40h-47v44h468v-224h-44v24q0 82 -37.5 119t-122.5 37h-73q-40 0 -40 -40v-230h81q33 0 51.5 19t18.5 57v22h44v-240h-44v22q0 38 -18.5 57t-51.5 19h-81v-258q0 -40 40 -40h73q84 0 122 38.5t38 117.5v24h44v-224z" />
    <glyph glyph-name="F" unicode="F" horiz-adv-x="523" 
d="M298 0h-273v44h47q40 0 40 40v532q0 40 -40 40h-47v44h478v-228h-44v24q0 81 -41.5 120.5t-138.5 39.5h-103v-284h61q80 0 80 80v22h44v-248h-44v22q0 80 -80 80h-61v-244q0 -40 40 -40h82v-44z" />
    <glyph glyph-name="G" unicode="G" horiz-adv-x="601" 
d="M291 -12q-118 0 -189.5 102t-71.5 260q0 156 76.5 259t196.5 103q73 0 144 -62l14 11v39h44v-258h-44q-25 127 -59.5 176.5t-98.5 49.5q-187 0 -187 -288v-60q0 -288 179 -288q69 0 112.5 56.5t43.5 140.5v37q0 40 -40 40h-149v44h320v-44h-27q-40 0 -40 -40v-266h-40
l-14 85h-7q-22 -48 -65.5 -72.5t-97.5 -24.5z" />
    <glyph glyph-name="H" unicode="H" horiz-adv-x="637" 
d="M612 700v-44h-47q-40 0 -40 -40v-532q0 -40 40 -40h47v-44h-238v44h47q40 0 40 40v258h-285v-258q0 -40 40 -40h47v-44h-238v44h47q40 0 40 40v532q0 40 -40 40h-47v44h238v-44h-47q-40 0 -40 -40v-230h285v230q0 40 -40 40h-47v44h238z" />
    <glyph glyph-name="I" unicode="I" horiz-adv-x="288" 
d="M263 0h-238v44h47q40 0 40 40v532q0 40 -40 40h-47v44h238v-44h-47q-40 0 -40 -40v-532q0 -40 40 -40h47v-44z" />
    <glyph glyph-name="J" unicode="J" horiz-adv-x="491" 
d="M199 -12q-81 0 -129 45t-48 101q0 28 15.5 45.5t41.5 17.5q24 0 39 -15t15 -37q0 -41 -45 -57v-7q12 -21 40.5 -35.5t61.5 -14.5q57 0 91 40.5t34 112.5v432q0 40 -40 40h-112v44h303v-44h-47q-40 0 -40 -40v-436q0 -89 -50.5 -140.5t-129.5 -51.5z" />
    <glyph glyph-name="K" unicode="K" horiz-adv-x="619" 
d="M560 44h37v-44h-230v44h26q15 0 20 11t-4 27l-154 252h-79v-250q0 -40 40 -40h47v-44h-238v44h47q40 0 40 40v532q0 40 -40 40h-47v44h238v-44h-47q-40 0 -40 -40v-238h48l180 240q11 13 7.5 25.5t-21.5 12.5h-27v44h227v-44h-50q-53 0 -89 -48l-158 -213l182 -299
q31 -52 85 -52z" />
    <glyph glyph-name="L" unicode="L" horiz-adv-x="514" 
d="M216 44h69q160 0 160 156v84h44v-284h-464v44h47q40 0 40 40v532q0 40 -40 40h-47v44h238v-44h-47q-40 0 -40 -40v-532q0 -40 40 -40z" />
    <glyph glyph-name="M" unicode="M" horiz-adv-x="711" 
d="M243 0h-218v44h47q40 0 40 40v532q0 40 -40 40h-47v44h180l149 -550h4l149 550h179v-44h-47q-40 0 -40 -40v-532q0 -40 40 -40h47v-44h-236v44h47q40 0 40 40v535h-4l-169 -619h-35l-169 619h-4v-535q0 -40 40 -40h47v-44z" />
    <glyph glyph-name="N" unicode="N" horiz-adv-x="641" 
d="M246 44v-44h-221v44h47q40 0 40 40v532q0 40 -40 40h-47v44h183l268 -516h6v432q0 40 -40 40h-47v44h221v-44h-47q-40 0 -40 -40v-616h-35l-329 640h-6v-556q0 -40 40 -40h47z" />
    <glyph glyph-name="O" unicode="O" 
d="M300 -12q-117 0 -193.5 104t-76.5 258t77 258t193 104q117 0 193.5 -104t76.5 -258t-77 -258t-193 -104zM300 32q79 0 131.5 65.5t52.5 222.5v60q0 157 -52.5 222.5t-131.5 65.5t-131.5 -65.5t-52.5 -222.5v-60q0 -157 52.5 -222.5t131.5 -65.5z" />
    <glyph glyph-name="P" unicode="P" horiz-adv-x="563" 
d="M263 0h-238v44h47q40 0 40 40v532q0 40 -40 40h-47v44h327q82 0 135.5 -50.5t53.5 -127.5t-53.5 -128.5t-135.5 -51.5h-176v-258q0 -40 40 -40h47v-44zM176 616v-230h168q47 0 82 29t35 76v62q0 47 -34.5 75t-82.5 28h-128q-40 0 -40 -40z" />
    <glyph glyph-name="Q" unicode="Q" horiz-adv-x="606" 
d="M568 94h36q0 -89 -22.5 -133.5t-72.5 -44.5q-63 0 -119 91q-44 -19 -90 -19q-117 0 -193.5 104t-76.5 258t77 258t193 104q117 0 193.5 -104t76.5 -258q0 -100 -34.5 -182.5t-95.5 -129.5q44 -62 72 -62q29 0 42.5 27.5t13.5 90.5zM116 380v-60q0 -206 99 -266
q-3 12 -3 23q0 37 23.5 62t59.5 25q34 0 62 -23.5t57 -64.5q70 72 70 244v60q0 157 -52.5 222.5t-131.5 65.5t-131.5 -65.5t-52.5 -222.5zM300 32q36 0 68 13q-21 37 -37.5 56t-35.5 19t-29 -10.5t-10 -27.5v-11q0 -26 21 -38q8 -1 23 -1z" />
    <glyph glyph-name="R" unicode="R" horiz-adv-x="610" 
d="M298 0h-273v44h47q40 0 40 40v532q0 40 -40 40h-47v44h327q84 0 133.5 -42.5t49.5 -113.5v-15q0 -69 -42.5 -113.5t-101.5 -50.5v-8q104 -5 104 -160v-119q0 -40 23 -40t23 39v128h44v-128q0 -87 -72 -87q-49 0 -65.5 28.5t-16.5 93.5v68q0 94 -42.5 133t-137.5 39h-75
v-268q0 -40 40 -40h82v-44zM176 616v-220h151q127 0 127 125v12q0 123 -127 123h-111q-40 0 -40 -40z" />
    <glyph glyph-name="S" unicode="S" horiz-adv-x="517" 
d="M276 -12q-64 0 -104.5 17.5t-77.5 58.5l-12 -11v-53h-44v270h44l4 -34q24 -204 179 -204q60 0 101.5 31.5t41.5 94.5q0 52 -35.5 86t-104.5 67l-79 38q-140 67 -140 176q0 88 53.5 137t140.5 49q60 0 97 -20.5t68 -61.5l16 11v60h44v-249h-44l-3 11q-13 47 -25 78
t-32.5 63t-50.5 48t-69 16q-52 0 -88.5 -31t-36.5 -86q0 -87 106 -138l101 -49q153 -74 153 -192q0 -90 -58 -136.5t-145 -46.5z" />
    <glyph glyph-name="T" unicode="T" horiz-adv-x="572" 
d="M22 700h528v-224h-46v44q0 71 -29.5 103.5t-102.5 32.5h-14q-40 0 -40 -40v-532q0 -40 40 -40h70v-44h-284v44h70q40 0 40 40v532q0 40 -40 40h-14q-73 0 -102.5 -32.5t-29.5 -103.5v-44h-46v224z" />
    <glyph glyph-name="U" unicode="U" horiz-adv-x="632" 
d="M389 700h223v-44h-45q-40 0 -40 -40v-372q0 -256 -207 -256q-31 0 -59 5.5t-57.5 20t-50.5 37.5t-34.5 61.5t-13.5 87.5v416q0 40 -40 40h-45v44h260v-44h-71q-40 0 -40 -40v-424q0 -160 158 -160q156 0 156 207v377q0 40 -40 40h-54v44z" />
    <glyph glyph-name="V" unicode="V" horiz-adv-x="635" 
d="M334 0h-40l-182 612q-13 44 -60 44h-35v44h256v-44h-63q-22 0 -31 -12t-2 -34l144 -485h5l150 485q7 22 -2 34t-31 12h-50v44h225v-44h-34q-48 0 -61 -44z" />
    <glyph glyph-name="W" unicode="W" horiz-adv-x="715" 
d="M248 0h-42l-114 618q-8 38 -49 38h-25v44h210v-44h-38q-42 0 -34 -45l82 -433h5l109 522h31l116 -522h4l81 433q4 21 -6 33t-31 12h-33v44h183v-44h-25q-38 0 -46 -39l-115 -617h-42l-109 519h-4z" />
    <glyph glyph-name="X" unicode="X" horiz-adv-x="610" 
d="M576 44h17v-44h-232v44h48q20 0 26 12t-5 29l-135 227l-126 -227q-10 -17 -4.5 -29t25.5 -12h46v-44h-219v44h24q54 0 77 41l152 270l-154 258q-25 43 -77 43h-17v44h231v-44h-39q-23 0 -29.5 -14t5.5 -34l113 -190l115 190q13 22 6.5 35t-30.5 13h-40v44h214v-44h-16
q-53 0 -77 -40l-147 -240l172 -289q25 -43 76 -43z" />
    <glyph glyph-name="Y" unicode="Y" horiz-adv-x="593" 
d="M353 656v44h226v-44h-34q-44 0 -62 -44l-140 -356v-172q0 -40 40 -40h62v-44h-268v44h62q40 0 40 40v161l-169 367q-21 44 -61 44h-35v44h260v-44h-63q-23 0 -32 -12.5t0 -33.5l132 -285h11l113 285q9 22 -0.5 34t-31.5 12h-50z" />
    <glyph glyph-name="Z" unicode="Z" horiz-adv-x="535" 
d="M510 0h-485v44l394 612h-172q-78 0 -118 -41t-40 -119v-24h-44v228h449v-44l-393 -612h205q78 0 119 41t41 119v24h44v-228z" />
    <glyph glyph-name="bracketleft" unicode="[" horiz-adv-x="245" 
d="M231 -190h-197v970h197v-44h-93q-40 0 -40 -40v-802q0 -40 40 -40h93v-44z" />
    <glyph glyph-name="backslash" unicode="\" horiz-adv-x="268" 
d="M258 -100h-48l-200 900h48z" />
    <glyph glyph-name="bracketright" unicode="]" horiz-adv-x="245" 
d="M211 780v-970h-197v44h93q40 0 40 40v802q0 40 -40 40h-93v44h197z" />
    <glyph glyph-name="asciicircum" unicode="^" horiz-adv-x="406" 
d="M73 442h-54l160 258h48l160 -258h-54l-130 208z" />
    <glyph glyph-name="underscore" unicode="_" horiz-adv-x="376" 
d="M362 -113h-348v48h348v-48z" />
    <glyph glyph-name="grave" unicode="`" horiz-adv-x="202" 
d="M182 543h-40l-122 116v40h62z" />
    <glyph glyph-name="a" unicode="a" horiz-adv-x="491" 
d="M422 75v118h44v-114q0 -48 -17 -69.5t-57 -21.5q-41 0 -60 22.5t-23 69.5h-4q-22 -37 -62 -63t-90 -26q-61 0 -96.5 32.5t-35.5 95.5t52 103t142 40h93v41q0 62 -27.5 100.5t-89.5 38.5q-57 0 -92 -33q39 -10 39 -53q0 -24 -15.5 -38t-37.5 -14q-23 0 -39.5 16t-16.5 45
q0 49 50.5 85t125.5 36q91 0 129 -37.5t38 -115.5v-258q0 -43 25 -43t25 43zM169 43q40 0 76.5 26.5t62.5 74.5v74h-74q-64 0 -105.5 -24.5t-41.5 -72.5v-4q0 -39 20 -56.5t62 -17.5z" />
    <glyph glyph-name="b" unicode="b" horiz-adv-x="523" 
d="M292 -12q-51 0 -84.5 25t-46.5 67h-7l-35 -80h-22v616q0 40 -40 40h-39v44h143v-292h7q14 32 48 55t84 23q63 0 109.5 -37t67.5 -91.5t21 -117.5q0 -106 -52 -179t-154 -73zM291 32q57 0 93 49.5t36 139.5v26q0 92 -34.5 143.5t-94.5 51.5q-63 0 -96 -50.5t-33 -144.5
v-26q0 -92 34.5 -140.5t94.5 -48.5z" />
    <glyph glyph-name="c" unicode="c" horiz-adv-x="433" 
d="M370 176h44q-6 -94 -55 -141t-118 -47q-99 0 -157.5 67t-58.5 182q0 104 60 176.5t156 72.5q73 0 121 -35t48 -86q0 -29 -15 -44t-41 -15q-23 0 -39 15.5t-16 41.5q0 36 27 52v2q-34 25 -85 25q-61 0 -99.5 -44t-38.5 -145v-32q0 -96 38 -142.5t100 -46.5q59 0 92 41
t37 103z" />
    <glyph glyph-name="d" unicode="d" horiz-adv-x="522" 
d="M228 -12q-97 0 -150 71.5t-53 180.5q0 102 54 174t143 72q92 0 132 -82h7v212q0 40 -40 40h-39v44h143v-616q0 -40 40 -40h39v-44h-136v87h-7q-12 -42 -46.5 -70.5t-86.5 -28.5zM236 32q59 0 91.5 50.5t32.5 143.5v22q0 93 -32.5 143.5t-91.5 50.5q-63 0 -98 -50.5
t-35 -143.5v-22q0 -93 35 -143.5t98 -50.5z" />
    <glyph glyph-name="e" unicode="e" horiz-adv-x="448" 
d="M424 261v-31h-321v-13q0 -185 136 -185q115 0 137 144h44q-9 -93 -59 -140.5t-118 -47.5q-102 0 -160 68.5t-58 180.5q0 106 57 177.5t153 71.5q85 0 137 -61.5t52 -163.5zM228 442q-119 0 -125 -168h247v21q0 147 -122 147z" />
    <glyph glyph-name="f" unicode="f" horiz-adv-x="364" 
d="M320 0h-272v44h39q40 0 40 40v306q0 40 -40 40h-75v44h55q60 0 60 60v22q0 94 46.5 145t132.5 51q60 0 95 -31t35 -75q0 -28 -16 -44.5t-40 -16.5t-39.5 14.5t-15.5 40.5q0 40 35 50v7q-20 11 -56 11q-49 0 -81 -28t-32 -94v-112h149v-44h-109q-40 0 -40 -40v-306
q0 -40 40 -40h89v-44z" />
    <glyph glyph-name="g" unicode="g" horiz-adv-x="530" 
d="M167 51h150q110 0 155.5 -27t45.5 -87q0 -65 -71 -101t-190 -36h-14q-125 0 -180.5 26.5t-55.5 79.5q0 33 29 60t71 32v11q-40 12 -56 25.5t-16 43.5q0 32 27 51.5t61 18.5v9q-61 64 -61 140q0 79 53 134t131 55q19 0 40 -6q17 -5 26.5 -1t17.5 19l11 20q39 70 92 70
q37 0 51.5 -26t0.5 -51.5t-46 -25.5q-18 0 -31 10.5t-14 27.5q-13 -5 -21.5 -20.5t-8.5 -32.5q0 -22 16 -44.5t32.5 -53.5t16.5 -75q0 -79 -53 -134t-130 -55q-37 0 -64 8t-37 8q-16 0 -30.5 -8t-14.5 -22q0 -18 18 -30.5t49 -12.5zM140 307v-20q0 -70 29 -106t77 -36
t76.5 36t28.5 106v20q0 142 -105 142q-106 0 -106 -142zM247 -163h10q181 0 181 78q0 43 -28.5 59.5t-99.5 16.5h-100q-75 0 -108.5 -20t-33.5 -62q0 -72 179 -72z" />
    <glyph glyph-name="h" unicode="h" horiz-adv-x="559" 
d="M230 0h-212v44h39q40 0 40 40v532q0 40 -40 40h-39v44h143v-320h7q15 40 58 73t101 33q66 0 100.5 -43.5t34.5 -119.5v-239q0 -40 40 -40h39v-44h-212v44h29q40 0 40 40v249q0 44 -22.5 69.5t-64.5 25.5q-45 0 -87 -37.5t-63 -97.5v-209q0 -40 40 -40h29v-44z" />
    <glyph glyph-name="i" unicode="i" horiz-adv-x="298" 
d="M131 573q-23 0 -39 16.5t-16 38.5t16 38.5t39 16.5t39 -16.5t16 -38.5t-16 -38.5t-39 -16.5zM280 0h-262v44h59q40 0 40 40v306q0 40 -40 40h-52v44h156v-390q0 -40 40 -40h59v-44z" />
    <glyph glyph-name="j" unicode="j" horiz-adv-x="221" 
d="M120 580q-23 0 -40 17t-17 40t17 40t40 17t40 -17t17 -40t-17 -40t-40 -17zM6 -200q-63 0 -102.5 27.5t-39.5 77.5q0 27 16.5 43.5t38.5 16.5q23 0 38 -15t15 -40q0 -34 -36 -48v-7q21 -15 69 -15q43 0 71 36t28 94v420q0 40 -40 40h-52v44h156v-478q0 -91 -45 -143.5
t-117 -52.5z" />
    <glyph glyph-name="k" unicode="k" horiz-adv-x="546" 
d="M230 0h-212v44h39q40 0 40 40v532q0 40 -40 40h-39v44h143v-423h47l101 110q13 14 9 28.5t-21 14.5h-25v44h226v-44h-34q-57 0 -90 -37l-94 -102l150 -209q27 -38 73 -38h23v-44h-222v44h25q20 0 25.5 11.5t-6.5 28.5l-105 149h-82v-149q0 -40 40 -40h29v-44z" />
    <glyph glyph-name="l" unicode="l" horiz-adv-x="258" 
d="M240 0h-222v44h39q40 0 40 40v532q0 40 -40 40h-39v44h143v-616q0 -40 40 -40h39v-44z" />
    <glyph glyph-name="m" unicode="m" horiz-adv-x="736" 
d="M230 0h-212v44h39q40 0 40 40v306q0 40 -40 40h-39v44h136v-68h7q42 80 126 80q77 0 106 -80h7q18 34 50.5 57t77.5 23q121 0 121 -153v-249q0 -40 40 -40h29v-44h-202v44h29q40 0 40 40v259q0 88 -75 88q-27 0 -58.5 -20.5t-46.5 -52.5v-274q0 -40 40 -40h19v-44h-182
v44h19q40 0 40 40v259q0 88 -77 88q-29 0 -58 -22t-45 -51v-274q0 -40 40 -40h29v-44z" />
    <glyph glyph-name="n" unicode="n" horiz-adv-x="555" 
d="M230 0h-212v44h39q40 0 40 40v306q0 40 -40 40h-39v44h136v-114h7q15 47 60.5 86.5t105.5 39.5q58 0 94.5 -40t36.5 -113v-249q0 -40 40 -40h39v-44h-212v44h29q40 0 40 40v249q0 44 -22.5 69.5t-64.5 25.5q-44 0 -84.5 -37t-61.5 -98v-209q0 -40 40 -40h29v-44z" />
    <glyph glyph-name="o" unicode="o" horiz-adv-x="472" 
d="M236 -12q-90 0 -150.5 72.5t-60.5 176.5t60.5 176.5t150.5 72.5t150.5 -72.5t60.5 -176.5t-60.5 -176.5t-150.5 -72.5zM236 32q60 0 96.5 46.5t36.5 142.5v32q0 189 -133 189t-133 -189v-32q0 -96 36.5 -142.5t96.5 -46.5z" />
    <glyph glyph-name="p" unicode="p" horiz-adv-x="522" 
d="M270 -190h-252v44h39q19 0 29.5 9t10.5 23v504q0 40 -40 40h-39v44h137v-76h7q39 88 138 88q93 0 145 -74.5t52 -177.5q0 -97 -53 -171.5t-144 -74.5q-93 0 -132 75h-7v-177q0 -14 10.5 -23t29.5 -9h69v-44zM286 32q59 0 96 50t37 139v19q0 95 -35 148.5t-98 53.5
q-62 0 -93 -52.5t-31 -149.5v-19q0 -90 33 -139.5t91 -49.5z" />
    <glyph glyph-name="q" unicode="q" horiz-adv-x="502" 
d="M481 -190h-252v44h69q40 0 40 40v163h-7q-47 -69 -121 -69q-65 0 -108.5 37.5t-60 90.5t-16.5 118q0 69 15.5 123t58.5 91.5t109 37.5q49 0 82.5 -24t48.5 -61h7l34 73h22v-580q0 -40 40 -40h39v-44zM222 32q116 0 116 194v22q0 194 -116 194q-59 0 -89 -50t-30 -144v-22
q0 -94 30 -144t89 -50z" />
    <glyph glyph-name="r" unicode="r" horiz-adv-x="404" 
d="M290 0h-272v44h39q40 0 40 40v306q0 40 -40 40h-39v44h136v-105h7q11 48 47 82.5t94 34.5q38 0 63.5 -25.5t25.5 -59.5q0 -36 -25 -51t-50 -2t-25 43q0 28 22 43v6q-13 5 -27 5q-42 0 -75.5 -47t-49.5 -127v-187q0 -40 40 -40h89v-44z" />
    <glyph glyph-name="s" unicode="s" horiz-adv-x="407" 
d="M221 -12q-44 0 -84.5 18t-58.5 44l-7 -7v-43h-42v182h42l6 -33q10 -56 48.5 -86.5t92.5 -30.5q39 0 65.5 19.5t26.5 54.5q0 65 -118 111l-28 11q-36 14 -53.5 22.5t-39.5 23.5t-31 35t-9 48q0 55 41 92t112 37q86 0 135 -58l7 7v39h42v-168h-42l-8 30q-27 106 -131 106
q-42 0 -66.5 -19t-24.5 -48q0 -31 23.5 -50.5t75.5 -38.5l35 -13q75 -28 111.5 -59.5t36.5 -87.5q0 -58 -44.5 -98t-112.5 -40z" />
    <glyph glyph-name="t" unicode="t" horiz-adv-x="433" 
d="M276 -11q-138 0 -138 162v239q0 40 -40 40h-82v44h57q41 0 59.5 17.5t23.5 56.5l14 100h32v-174h165v-44h-125q-40 0 -40 -40v-243q0 -51 24 -77.5t61 -26.5q35 0 55.5 29.5t20.5 88.5v72h44v-71q0 -80 -35.5 -126.5t-95.5 -46.5z" />
    <glyph glyph-name="u" unicode="u" horiz-adv-x="559" 
d="M234 -12q-141 0 -141 153v249q0 40 -40 40h-39v44h143v-345q0 -41 27.5 -62.5t67.5 -21.5q36 0 71 27t58 73q17 33 17 90v155q0 40 -40 40h-39v44h143v-390q0 -40 40 -40h39v-44h-126l-10 106h-7q-62 -118 -164 -118z" />
    <glyph glyph-name="v" unicode="v" horiz-adv-x="496" 
d="M295 474h186v-44h-19q-44 0 -58 -40l-137 -390h-28l-149 390q-16 40 -56 40h-19v44h233v-44h-58q-22 0 -31 -12t-1 -33l99 -258h10l91 258q7 21 -1 33t-29 12h-33v44z" />
    <glyph glyph-name="w" unicode="w" horiz-adv-x="625" 
d="M431 474h179v-44h-30q-36 0 -46 -36l-108 -394h-41l-78 347h-6l-82 -347h-41l-96 395q-9 35 -47 35h-20v44h181v-44h-19q-42 0 -32 -44l59 -256h5l83 344h45l78 -344h5l72 257q5 19 -4.5 31t-29.5 12h-27v44z" />
    <glyph glyph-name="x" unicode="x" horiz-adv-x="510" 
d="M472 44h21v-44h-206v44h33q13 0 19.5 10.5t-1.5 23.5l-87 119l-94 -121q-8 -10 -4 -21t16 -11h44v-44h-196v44h23q36 0 56 26l124 158l-123 174q-20 28 -56 28h-21v44h206v-44h-36q-13 0 -16.5 -11t5.5 -25l74 -105l75 103q10 14 7 26t-20 12h-40v44h196v-44h-24
q-35 0 -55 -26l-109 -145l136 -187q21 -28 53 -28z" />
    <glyph glyph-name="y" unicode="y" horiz-adv-x="481" 
d="M122 -190q-45 0 -77.5 30t-32.5 70q0 25 14.5 38t33.5 13q18 0 31 -11t13 -32q0 -32 -35 -43v-6q17 -19 53 -19q44 0 71.5 43.5t27.5 97.5q0 57 -24 118l-109 275q-19 46 -68 46h-13v44h216v-44h-33q-23 0 -31.5 -13.5t-0.5 -35.5l105 -265h4l84 266q7 22 -2 35t-32 13
h-31v44h188v-44h-11q-51 0 -66 -48l-131 -419q-25 -79 -60 -116t-84 -37z" />
    <glyph glyph-name="z" unicode="z" horiz-adv-x="409" 
d="M386 0h-366v48l285 378h-198q-40 0 -40 -40v-84h-46v172h368v-42l-291 -384h202q40 0 40 40v84h46v-172z" />
    <glyph glyph-name="braceleft" unicode="{" horiz-adv-x="310" 
d="M296 736h-39q-46 0 -68 -24.5t-17 -71.5l23 -215q7 -62 -14.5 -95.5t-65.5 -33.5v-2q44 0 65.5 -33.5t14.5 -95.5l-22 -215q-9 -96 84 -96h39v-44h-52q-86 0 -115 44.5t-19 131.5l22 206q4 38 -25.5 59.5t-72.5 21.5h-9v44h9q43 0 73 21.5t26 58.5l-25 206q-10 87 20 132
t116 45h52v-44z" />
    <glyph glyph-name="bar" unicode="|" horiz-adv-x="122" 
d="M82 750v-870h-42v870h42z" />
    <glyph glyph-name="braceright" unicode="}" horiz-adv-x="310" 
d="M276 317h9v-44h-9q-43 0 -72.5 -21.5t-25.5 -59.5l22 -206q10 -87 -19 -131.5t-115 -44.5h-52v44h39q93 0 84 96l-22 215q-7 62 14.5 95.5t65.5 33.5v2q-44 0 -65.5 33.5t-14.5 95.5l23 215q5 47 -17 71.5t-68 24.5h-39v44h52q86 0 116 -45t20 -132l-25 -206
q-4 -37 26 -58.5t73 -21.5z" />
    <glyph glyph-name="asciitilde" unicode="~" horiz-adv-x="418" 
d="M287 220q-43 0 -96 33t-78 33q-49 0 -66 -68h-27q4 58 33 88t74 30q43 0 96 -33t78 -33q49 0 66 66h27q-4 -57 -33 -86.5t-74 -29.5z" />
    <glyph glyph-name="uni00A0" unicode="&#xa0;" horiz-adv-x="158" 
 />
    <glyph glyph-name="exclamdown" unicode="&#xa1;" horiz-adv-x="202" 
d="M101 486q22 0 36.5 -14.5t14.5 -36.5t-14.5 -36.5t-36.5 -14.5t-36.5 14.5t-14.5 36.5t14.5 36.5t36.5 14.5zM101 -202q-42 0 -42 55q0 7 10 158t10 222v41h44v-41q0 -71 10 -222t10 -158q0 -55 -42 -55z" />
    <glyph glyph-name="sterling" unicode="&#xa3;" horiz-adv-x="510" 
d="M442 180v64h44v-69q0 -187 -132 -187q-66 0 -129 61q-38 -61 -107 -61q-42 0 -68.5 24t-26.5 63q0 38 27 63.5t68 25.5q40 0 82 -30v2q0 16 -3 32.5t-10 38t-11.5 33.5t-16.5 40.5t-15 36.5h-100v42h84q-23 65 -23 114q0 116 61 177.5t154 61.5q72 0 117.5 -39t45.5 -89
q0 -28 -16 -43t-39 -15t-38.5 15.5t-15.5 40.5q0 35 26 52v7q-33 27 -80 27q-141 0 -141 -163q0 -57 27 -146h164v-42h-150q29 -95 29 -173q0 -22 -5 -47q22 -20 35 -30t34 -19.5t41 -9.5q51 0 69.5 34t18.5 108zM120 32q53 0 71 50q-38 38 -71 38q-21 0 -36 -12.5
t-15 -32.5t15.5 -31.5t35.5 -11.5z" />
    <glyph glyph-name="yen" unicode="&#xa5;" horiz-adv-x="595" 
d="M354 656v44h227v-44h-34q-41 0 -62 -44l-112 -237h132v-42h-152l-8 -17v-71h160v-42h-160v-119q0 -40 40 -40h62v-44h-268v44h62q40 0 40 40v119h-160v42h160v60l-16 28h-144v42h121l-132 237q-14 24 -26.5 34t-34.5 10h-35v44h263v-44h-63q-23 0 -33 -12.5t1 -33.5
l132 -235h9l113 235q10 22 0.5 34t-32.5 12h-50z" />
    <glyph glyph-name="dieresis" unicode="&#xa8;" horiz-adv-x="348" 
d="M81 571q-21 0 -36 15t-15 36t15 36t36 15t36 -15t15 -36t-15 -36t-36 -15zM239 571q-21 0 -36 15t-15 36t15 36t36 15t36 -15t15 -36t-15 -36t-36 -15z" />
    <glyph glyph-name="guillemotleft" unicode="&#xab;" horiz-adv-x="400" 
d="M230 40h-31l-171 215v26l171 215h31l-134 -225v-6zM380 40h-31l-171 215v26l171 215h31l-134 -225v-6z" />
    <glyph glyph-name="uni00AD" unicode="&#xad;" horiz-adv-x="256" 
d="M242 257h-228v48h228v-48z" />
    <glyph glyph-name="acute" unicode="&#xb4;" horiz-adv-x="202" 
d="M60 544h-40l100 156h62v-40z" />
    <glyph glyph-name="periodcentered" unicode="&#xb7;" horiz-adv-x="150" 
d="M91 289q-22 0 -36.5 14.5t-14.5 36.5t14.5 36.5t36.5 14.5t36.5 -14.5t14.5 -36.5t-14.5 -36.5t-36.5 -14.5z" />
    <glyph glyph-name="cedilla" unicode="&#xb8;" horiz-adv-x="161" 
d="M83 -38q30 0 50 -21.5t20 -60.5q0 -37 -23 -59.5t-56 -22.5q-37 0 -55.5 18t-18.5 49h28q4 -38 37 -38q35 0 35 39v28q0 37 -27 37q-24 0 -28 -29h-34l22 123h42l-17 -68q12 5 25 5z" />
    <glyph glyph-name="guillemotright" unicode="&#xbb;" horiz-adv-x="400" 
d="M222 255l-171 -215h-31l134 225v6l-134 225h31l171 -215v-26zM372 255l-171 -215h-31l134 225v6l-134 225h31l171 -215v-26z" />
    <glyph glyph-name="questiondown" unicode="&#xbf;" horiz-adv-x="428" 
d="M220 487q22 0 36.5 -14.5t14.5 -36.5t-14.5 -36.5t-36.5 -14.5t-36.5 14.5t-14.5 36.5t14.5 36.5t36.5 14.5zM219 -202q-83 0 -140 51.5t-57 139.5q0 90 54.5 145.5t123.5 64.5v76h44v-136q-73 0 -119 -45.5t-46 -117.5q0 -64 39 -99t102 -35q72 0 107 37v8
q-28 20 -28 54q0 25 15.5 40.5t38.5 15.5q24 0 39.5 -16.5t15.5 -45.5q0 -54 -56.5 -95.5t-132.5 -41.5z" />
    <glyph glyph-name="Agrave" unicode="&#xc0;" horiz-adv-x="641" 
d="M245 926l100 -156h-40l-122 116v40h62zM593 44h32v-44h-235v44h33q45 0 30 50l-33 108h-227l-32 -108q-7 -23 3 -36.5t33 -13.5h39v-44h-220v44h29q55 0 71 52l181 604h42l183 -605q15 -51 71 -51zM304 571l-97 -325h200l-98 325h-5z" />
    <glyph glyph-name="Aacute" unicode="&#xc1;" horiz-adv-x="641" 
d="M462 926v-40l-122 -116h-40l100 156h62zM593 44h32v-44h-235v44h33q45 0 30 50l-33 108h-227l-32 -108q-7 -23 3 -36.5t33 -13.5h39v-44h-220v44h29q55 0 71 52l181 604h42l183 -605q15 -51 71 -51zM304 571l-97 -325h200l-98 325h-5z" />
    <glyph glyph-name="Acircumflex" unicode="&#xc2;" horiz-adv-x="641" 
d="M324 862h-8l-75 -92h-42l98 156h46l98 -156h-42zM593 44h32v-44h-235v44h33q45 0 30 50l-33 108h-227l-32 -108q-7 -23 3 -36.5t33 -13.5h39v-44h-220v44h29q55 0 71 52l181 604h42l183 -605q15 -51 71 -51zM304 571l-97 -325h200l-98 325h-5z" />
    <glyph glyph-name="Atilde" unicode="&#xc3;" horiz-adv-x="641" 
d="M234 862q-27 0 -43 -18.5t-21 -49.5h-23q5 62 28.5 93t72.5 31q32 0 57.5 -18.5t48.5 -37t51 -18.5q27 0 43 18.5t21 49.5h23q-5 -62 -28.5 -93t-72.5 -31q-33 0 -60 18.5t-50.5 37t-46.5 18.5zM593 44h32v-44h-235v44h33q45 0 30 50l-33 108h-227l-32 -108
q-7 -23 3 -36.5t33 -13.5h39v-44h-220v44h29q55 0 71 52l181 604h42l183 -605q15 -51 71 -51zM304 571l-97 -325h200l-98 325h-5z" />
    <glyph glyph-name="Adieresis" unicode="&#xc4;" horiz-adv-x="641" 
d="M241 797q-21 0 -36 15t-15 36t15 36t36 15t36 -15t15 -36t-15 -36t-36 -15zM399 797q-21 0 -36 15t-15 36t15 36t36 15t36 -15t15 -36t-15 -36t-36 -15zM593 44h32v-44h-235v44h33q45 0 30 50l-33 108h-227l-32 -108q-7 -23 3 -36.5t33 -13.5h39v-44h-220v44h29
q55 0 71 52l181 604h42l183 -605q15 -51 71 -51zM304 571l-97 -325h200l-98 325h-5z" />
    <glyph glyph-name="Aring" unicode="&#xc5;" horiz-adv-x="641" 
d="M593 44h32v-44h-235v44h33q45 0 30 50l-33 108h-227l-32 -108q-7 -23 3 -36.5t33 -13.5h39v-44h-220v44h29q55 0 71 52l171 572q-35 10 -58.5 41.5t-23.5 69.5q0 46 32.5 80.5t77.5 34.5t77.5 -34.5t32.5 -80.5q0 -36 -22 -67t-55 -42l174 -575q15 -51 71 -51zM261 794
v-30q0 -64 54 -64t54 64v30q0 64 -54 64t-54 -64zM304 571l-97 -325h200l-98 325h-5z" />
    <glyph glyph-name="AE" unicode="&#xc6;" horiz-adv-x="814" 
d="M257 700h532v-224h-44v24q0 79 -38.5 117.5t-122.5 38.5h-71q-40 0 -40 -40v-230h72q78 0 78 78v20h44v-240h-44v20q0 78 -78 78h-71v-258q0 -40 40 -40h71q84 0 122 38.5t38 117.5v24h44v-224h-467v44h47q40 0 40 40v118h-200l-47 -108q-10 -22 0 -36t36 -14h39v-44
h-221v44h29q48 0 70 52l225 526q15 34 -29 34h-54v44zM409 660h-5l-177 -414h182v414z" />
    <glyph glyph-name="Ccedilla" unicode="&#xc7;" horiz-adv-x="543" 
d="M296 -12h-5l-8 -31q12 5 25 5q30 0 50 -21.5t20 -60.5q0 -37 -23 -59.5t-56 -22.5q-37 0 -55.5 18t-18.5 49h28q4 -38 37 -38q35 0 35 39v28q0 37 -27 37q-24 0 -28 -29h-34l16 90q-99 20 -160.5 117.5t-61.5 240.5q0 155 77 258.5t196 103.5q96 0 150 -64l14 9v43h44
v-258h-44q-35 127 -67.5 176.5t-103.5 49.5q-32 0 -61.5 -14t-57.5 -44.5t-44.5 -89.5t-16.5 -140v-60q0 -288 186 -288q73 0 118.5 49t49.5 145h44q-5 -125 -67.5 -181.5t-150.5 -56.5z" />
    <glyph glyph-name="Egrave" unicode="&#xc8;" horiz-adv-x="518" 
d="M282 770h-40l-122 116v40h62zM493 0h-468v44h47q40 0 40 40v532q0 40 -40 40h-47v44h468v-224h-44v24q0 82 -37.5 119t-122.5 37h-73q-40 0 -40 -40v-230h81q33 0 51.5 19t18.5 57v22h44v-240h-44v22q0 38 -18.5 57t-51.5 19h-81v-258q0 -40 40 -40h73q84 0 122 38.5
t38 117.5v24h44v-224z" />
    <glyph glyph-name="Eacute" unicode="&#xc9;" horiz-adv-x="518" 
d="M277 770h-40l100 156h62v-40zM493 0h-468v44h47q40 0 40 40v532q0 40 -40 40h-47v44h468v-224h-44v24q0 82 -37.5 119t-122.5 37h-73q-40 0 -40 -40v-230h81q33 0 51.5 19t18.5 57v22h44v-240h-44v22q0 38 -18.5 57t-51.5 19h-81v-258q0 -40 40 -40h73q84 0 122 38.5
t38 117.5v24h44v-224z" />
    <glyph glyph-name="Ecircumflex" unicode="&#xca;" horiz-adv-x="518" 
d="M178 770h-42l98 156h46l98 -156h-42l-75 92h-8zM493 0h-468v44h47q40 0 40 40v532q0 40 -40 40h-47v44h468v-224h-44v24q0 82 -37.5 119t-122.5 37h-73q-40 0 -40 -40v-230h81q33 0 51.5 19t18.5 57v22h44v-240h-44v22q0 38 -18.5 57t-51.5 19h-81v-258q0 -40 40 -40h73
q84 0 122 38.5t38 117.5v24h44v-224z" />
    <glyph glyph-name="Edieresis" unicode="&#xcb;" horiz-adv-x="518" 
d="M178 797q-21 0 -36 15t-15 36t15 36t36 15t36 -15t15 -36t-15 -36t-36 -15zM336 797q-21 0 -36 15t-15 36t15 36t36 15t36 -15t15 -36t-15 -36t-36 -15zM493 0h-468v44h47q40 0 40 40v532q0 40 -40 40h-47v44h468v-224h-44v24q0 82 -37.5 119t-122.5 37h-73
q-40 0 -40 -40v-230h81q33 0 51.5 19t18.5 57v22h44v-240h-44v22q0 38 -18.5 57t-51.5 19h-81v-258q0 -40 40 -40h73q84 0 122 38.5t38 117.5v24h44v-224z" />
    <glyph glyph-name="Igrave" unicode="&#xcc;" horiz-adv-x="288" 
d="M171 770h-40l-122 116v40h62zM263 0h-238v44h47q40 0 40 40v532q0 40 -40 40h-47v44h238v-44h-47q-40 0 -40 -40v-532q0 -40 40 -40h47v-44z" />
    <glyph glyph-name="Iacute" unicode="&#xcd;" horiz-adv-x="288" 
d="M166 770h-40l100 156h62v-40zM263 0h-238v44h47q40 0 40 40v532q0 40 -40 40h-47v44h238v-44h-47q-40 0 -40 -40v-532q0 -40 40 -40h47v-44z" />
    <glyph glyph-name="Icircumflex" unicode="&#xce;" horiz-adv-x="288" 
d="M67 770h-42l98 156h46l98 -156h-42l-75 92h-8zM263 0h-238v44h47q40 0 40 40v532q0 40 -40 40h-47v44h238v-44h-47q-40 0 -40 -40v-532q0 -40 40 -40h47v-44z" />
    <glyph glyph-name="Idieresis" unicode="&#xcf;" horiz-adv-x="288" 
d="M67 797q-21 0 -36 15t-15 36t15 36t36 15t36 -15t15 -36t-15 -36t-36 -15zM225 797q-21 0 -36 15t-15 36t15 36t36 15t36 -15t15 -36t-15 -36t-36 -15zM263 0h-238v44h47q40 0 40 40v532q0 40 -40 40h-47v44h238v-44h-47q-40 0 -40 -40v-532q0 -40 40 -40h47v-44z" />
    <glyph glyph-name="Eth" unicode="&#xd0;" horiz-adv-x="567" 
d="M25 700h236q128 0 202 -94.5t74 -255.5t-75 -255.5t-201 -94.5h-236v44h47q40 0 40 40v246h-86v40h86v246q0 40 -40 40h-47v44zM216 44h25q91 0 150.5 66.5t59.5 209.5v60q0 276 -195 276h-40q-40 0 -40 -40v-246h173v-40h-173v-246q0 -40 40 -40z" />
    <glyph glyph-name="Ntilde" unicode="&#xd1;" horiz-adv-x="641" 
d="M392 788q-33 0 -60 18.5t-50.5 37t-46.5 18.5q-27 0 -43 -18.5t-21 -49.5h-23q5 62 28.5 93t72.5 31q32 0 57.5 -18.5t48.5 -37t51 -18.5q27 0 43 18.5t21 49.5h23q-5 -62 -28.5 -93t-72.5 -31zM246 44v-44h-221v44h47q40 0 40 40v532q0 40 -40 40h-47v44h183l268 -516h6
v432q0 40 -40 40h-47v44h221v-44h-47q-40 0 -40 -40v-616h-35l-329 640h-6v-556q0 -40 40 -40h47z" />
    <glyph glyph-name="Ograve" unicode="&#xd2;" 
d="M325 770h-40l-122 116v40h62zM300 -12q-117 0 -193.5 104t-76.5 258t77 258t193 104q117 0 193.5 -104t76.5 -258t-77 -258t-193 -104zM300 32q79 0 131.5 65.5t52.5 222.5v60q0 157 -52.5 222.5t-131.5 65.5t-131.5 -65.5t-52.5 -222.5v-60q0 -157 52.5 -222.5
t131.5 -65.5z" />
    <glyph glyph-name="Oacute" unicode="&#xd3;" 
d="M320 770h-40l100 156h62v-40zM300 -12q-117 0 -193.5 104t-76.5 258t77 258t193 104q117 0 193.5 -104t76.5 -258t-77 -258t-193 -104zM300 32q79 0 131.5 65.5t52.5 222.5v60q0 157 -52.5 222.5t-131.5 65.5t-131.5 -65.5t-52.5 -222.5v-60q0 -157 52.5 -222.5
t131.5 -65.5z" />
    <glyph glyph-name="Ocircumflex" unicode="&#xd4;" 
d="M221 770h-42l98 156h46l98 -156h-42l-75 92h-8zM300 -12q-117 0 -193.5 104t-76.5 258t77 258t193 104q117 0 193.5 -104t76.5 -258t-77 -258t-193 -104zM300 32q79 0 131.5 65.5t52.5 222.5v60q0 157 -52.5 222.5t-131.5 65.5t-131.5 -65.5t-52.5 -222.5v-60
q0 -157 52.5 -222.5t131.5 -65.5z" />
    <glyph glyph-name="Otilde" unicode="&#xd5;" 
d="M371 788q-33 0 -60 18.5t-50.5 37t-46.5 18.5q-27 0 -43 -18.5t-21 -49.5h-23q5 62 28.5 93t72.5 31q32 0 57.5 -18.5t48.5 -37t51 -18.5q27 0 43 18.5t21 49.5h23q-5 -62 -28.5 -93t-72.5 -31zM300 -12q-117 0 -193.5 104t-76.5 258t77 258t193 104q117 0 193.5 -104
t76.5 -258t-77 -258t-193 -104zM300 32q79 0 131.5 65.5t52.5 222.5v60q0 157 -52.5 222.5t-131.5 65.5t-131.5 -65.5t-52.5 -222.5v-60q0 -157 52.5 -222.5t131.5 -65.5z" />
    <glyph glyph-name="Odieresis" unicode="&#xd6;" 
d="M221 797q-21 0 -36 15t-15 36t15 36t36 15t36 -15t15 -36t-15 -36t-36 -15zM379 797q-21 0 -36 15t-15 36t15 36t36 15t36 -15t15 -36t-15 -36t-36 -15zM300 -12q-117 0 -193.5 104t-76.5 258t77 258t193 104q117 0 193.5 -104t76.5 -258t-77 -258t-193 -104zM300 32
q79 0 131.5 65.5t52.5 222.5v60q0 157 -52.5 222.5t-131.5 65.5t-131.5 -65.5t-52.5 -222.5v-60q0 -157 52.5 -222.5t131.5 -65.5z" />
    <glyph glyph-name="multiply" unicode="&#xd7;" horiz-adv-x="406" 
d="M348 460l34 -34l-145 -145l145 -145l-34 -34l-145 145l-145 -145l-34 34l145 145l-145 145l34 34l145 -145z" />
    <glyph glyph-name="Oslash" unicode="&#xd8;" 
d="M531 713l-51 -88q90 -106 90 -275q0 -154 -77 -258t-193 -104q-87 0 -153 60l-47 -81l-35 20l53 91q-88 106 -88 272q0 154 77 258t193 104q84 0 151 -57l45 78zM116 380v-60q0 -119 33 -188l276 479q-46 57 -125 57t-131.5 -65.5t-52.5 -222.5zM300 32q79 0 131.5 65.5
t52.5 222.5v60q0 122 -35 192l-277 -480q47 -60 128 -60z" />
    <glyph glyph-name="Ugrave" unicode="&#xd9;" horiz-adv-x="632" 
d="M342 770h-40l-122 116v40h62zM389 700h223v-44h-45q-40 0 -40 -40v-372q0 -256 -207 -256q-31 0 -59 5.5t-57.5 20t-50.5 37.5t-34.5 61.5t-13.5 87.5v416q0 40 -40 40h-45v44h260v-44h-71q-40 0 -40 -40v-424q0 -160 158 -160q156 0 156 207v377q0 40 -40 40h-54v44z
" />
    <glyph glyph-name="Uacute" unicode="&#xda;" horiz-adv-x="632" 
d="M337 770h-40l100 156h62v-40zM389 700h223v-44h-45q-40 0 -40 -40v-372q0 -256 -207 -256q-31 0 -59 5.5t-57.5 20t-50.5 37.5t-34.5 61.5t-13.5 87.5v416q0 40 -40 40h-45v44h260v-44h-71q-40 0 -40 -40v-424q0 -160 158 -160q156 0 156 207v377q0 40 -40 40h-54v44z
" />
    <glyph glyph-name="Ucircumflex" unicode="&#xdb;" horiz-adv-x="632" 
d="M238 770h-42l98 156h46l98 -156h-42l-75 92h-8zM389 700h223v-44h-45q-40 0 -40 -40v-372q0 -256 -207 -256q-31 0 -59 5.5t-57.5 20t-50.5 37.5t-34.5 61.5t-13.5 87.5v416q0 40 -40 40h-45v44h260v-44h-71q-40 0 -40 -40v-424q0 -160 158 -160q156 0 156 207v377
q0 40 -40 40h-54v44z" />
    <glyph glyph-name="Udieresis" unicode="&#xdc;" horiz-adv-x="632" 
d="M238 797q-21 0 -36 15t-15 36t15 36t36 15t36 -15t15 -36t-15 -36t-36 -15zM396 797q-21 0 -36 15t-15 36t15 36t36 15t36 -15t15 -36t-15 -36t-36 -15zM389 700h223v-44h-45q-40 0 -40 -40v-372q0 -256 -207 -256q-31 0 -59 5.5t-57.5 20t-50.5 37.5t-34.5 61.5
t-13.5 87.5v416q0 40 -40 40h-45v44h260v-44h-71q-40 0 -40 -40v-424q0 -160 158 -160q156 0 156 207v377q0 40 -40 40h-54v44z" />
    <glyph glyph-name="Yacute" unicode="&#xdd;" horiz-adv-x="593" 
d="M458 926v-40l-122 -116h-40l100 156h62zM353 656v44h226v-44h-34q-44 0 -62 -44l-140 -356v-172q0 -40 40 -40h62v-44h-268v44h62q40 0 40 40v161l-169 367q-21 44 -61 44h-35v44h260v-44h-63q-23 0 -32 -12.5t0 -33.5l132 -285h11l113 285q9 22 -0.5 34t-31.5 12h-50z
" />
    <glyph glyph-name="Thorn" unicode="&#xde;" horiz-adv-x="563" 
d="M263 0h-238v44h47q40 0 40 40v532q0 40 -40 40h-47v44h238v-44h-47q-40 0 -40 -40v-86h176q82 0 135.5 -51.5t53.5 -128.5t-53.5 -128.5t-135.5 -51.5h-176v-86q0 -40 40 -40h47v-44zM176 446v-232h170q51 0 83 29t32 76v62q0 45 -32 75t-83 30h-130q-40 0 -40 -40z" />
    <glyph glyph-name="germandbls" unicode="&#xdf;" horiz-adv-x="559" 
d="M373 -12q-83 0 -118 53l-7 -7v-34h-44v182h44l4 -33q6 -53 35.5 -85t79.5 -32q107 0 107 112q0 46 -30.5 85.5t-114.5 84.5q-51 27 -75 50.5t-24 58.5q0 25 22 50.5t49 44t49 48t22 62.5q0 80 -100 80q-62 0 -89.5 -34.5t-27.5 -107.5v-566h-143v44h39q40 0 40 40v472
q0 93 48.5 144.5t131.5 51.5q73 0 117 -33.5t44 -89.5q0 -37 -24 -71.5t-52.5 -55t-52.5 -40t-24 -30.5q0 -14 17.5 -26.5t61.5 -35.5q88 -44 131.5 -91.5t43.5 -115.5q0 -82 -44.5 -128.5t-115.5 -46.5z" />
    <glyph glyph-name="agrave" unicode="&#xe0;" horiz-adv-x="491" 
d="M161 700l100 -156h-40l-122 116v40h62zM422 75v118h44v-114q0 -48 -17 -69.5t-57 -21.5q-41 0 -60 22.5t-23 69.5h-4q-22 -37 -62 -63t-90 -26q-61 0 -96.5 32.5t-35.5 95.5t52 103t142 40h93v41q0 62 -27.5 100.5t-89.5 38.5q-57 0 -92 -33q39 -10 39 -53
q0 -24 -15.5 -38t-37.5 -14q-23 0 -39.5 16t-16.5 45q0 49 50.5 85t125.5 36q91 0 129 -37.5t38 -115.5v-258q0 -43 25 -43t25 43zM169 43q40 0 76.5 26.5t62.5 74.5v74h-74q-64 0 -105.5 -24.5t-41.5 -72.5v-4q0 -39 20 -56.5t62 -17.5z" />
    <glyph glyph-name="aacute" unicode="&#xe1;" horiz-adv-x="491" 
d="M378 700v-40l-122 -116h-40l100 156h62zM422 75v118h44v-114q0 -48 -17 -69.5t-57 -21.5q-41 0 -60 22.5t-23 69.5h-4q-22 -37 -62 -63t-90 -26q-61 0 -96.5 32.5t-35.5 95.5t52 103t142 40h93v41q0 62 -27.5 100.5t-89.5 38.5q-57 0 -92 -33q39 -10 39 -53
q0 -24 -15.5 -38t-37.5 -14q-23 0 -39.5 16t-16.5 45q0 49 50.5 85t125.5 36q91 0 129 -37.5t38 -115.5v-258q0 -43 25 -43t25 43zM169 43q40 0 76.5 26.5t62.5 74.5v74h-74q-64 0 -105.5 -24.5t-41.5 -72.5v-4q0 -39 20 -56.5t62 -17.5z" />
    <glyph glyph-name="acircumflex" unicode="&#xe2;" horiz-adv-x="491" 
d="M240 636h-8l-75 -92h-42l98 156h46l98 -156h-42zM422 75v118h44v-114q0 -48 -17 -69.5t-57 -21.5q-41 0 -60 22.5t-23 69.5h-4q-22 -37 -62 -63t-90 -26q-61 0 -96.5 32.5t-35.5 95.5t52 103t142 40h93v41q0 62 -27.5 100.5t-89.5 38.5q-57 0 -92 -33q39 -10 39 -53
q0 -24 -15.5 -38t-37.5 -14q-23 0 -39.5 16t-16.5 45q0 49 50.5 85t125.5 36q91 0 129 -37.5t38 -115.5v-258q0 -43 25 -43t25 43zM169 43q40 0 76.5 26.5t62.5 74.5v74h-74q-64 0 -105.5 -24.5t-41.5 -72.5v-4q0 -39 20 -56.5t62 -17.5z" />
    <glyph glyph-name="atilde" unicode="&#xe3;" horiz-adv-x="491" 
d="M150 636q-27 0 -43 -18.5t-21 -49.5h-23q5 62 28.5 93t72.5 31q32 0 57.5 -18.5t48.5 -37t51 -18.5q27 0 43 18.5t21 49.5h23q-5 -62 -28.5 -93t-72.5 -31q-33 0 -60 18.5t-50.5 37t-46.5 18.5zM422 75v118h44v-114q0 -48 -17 -69.5t-57 -21.5q-41 0 -60 22.5t-23 69.5
h-4q-22 -37 -62 -63t-90 -26q-61 0 -96.5 32.5t-35.5 95.5t52 103t142 40h93v41q0 62 -27.5 100.5t-89.5 38.5q-57 0 -92 -33q39 -10 39 -53q0 -24 -15.5 -38t-37.5 -14q-23 0 -39.5 16t-16.5 45q0 49 50.5 85t125.5 36q91 0 129 -37.5t38 -115.5v-258q0 -43 25 -43t25 43z
M169 43q40 0 76.5 26.5t62.5 74.5v74h-74q-64 0 -105.5 -24.5t-41.5 -72.5v-4q0 -39 20 -56.5t62 -17.5z" />
    <glyph glyph-name="adieresis" unicode="&#xe4;" horiz-adv-x="491" 
d="M157 571q-21 0 -36 15t-15 36t15 36t36 15t36 -15t15 -36t-15 -36t-36 -15zM315 571q-21 0 -36 15t-15 36t15 36t36 15t36 -15t15 -36t-15 -36t-36 -15zM422 75v118h44v-114q0 -48 -17 -69.5t-57 -21.5q-41 0 -60 22.5t-23 69.5h-4q-22 -37 -62 -63t-90 -26
q-61 0 -96.5 32.5t-35.5 95.5t52 103t142 40h93v41q0 62 -27.5 100.5t-89.5 38.5q-57 0 -92 -33q39 -10 39 -53q0 -24 -15.5 -38t-37.5 -14q-23 0 -39.5 16t-16.5 45q0 49 50.5 85t125.5 36q91 0 129 -37.5t38 -115.5v-258q0 -43 25 -43t25 43zM169 43q40 0 76.5 26.5
t62.5 74.5v74h-74q-64 0 -105.5 -24.5t-41.5 -72.5v-4q0 -39 20 -56.5t62 -17.5z" />
    <glyph glyph-name="aring" unicode="&#xe5;" horiz-adv-x="491" 
d="M236 542q-45 0 -77.5 34.5t-32.5 80.5t32.5 80.5t77.5 34.5t77.5 -34.5t32.5 -80.5t-32.5 -80.5t-77.5 -34.5zM182 672v-30q0 -64 54 -64t54 64v30q0 64 -54 64t-54 -64zM422 75v118h44v-114q0 -48 -17 -69.5t-57 -21.5q-41 0 -60 22.5t-23 69.5h-4q-22 -37 -62 -63
t-90 -26q-61 0 -96.5 32.5t-35.5 95.5t52 103t142 40h93v41q0 62 -27.5 100.5t-89.5 38.5q-57 0 -92 -33q39 -10 39 -53q0 -24 -15.5 -38t-37.5 -14q-23 0 -39.5 16t-16.5 45q0 49 50.5 85t125.5 36q91 0 129 -37.5t38 -115.5v-258q0 -43 25 -43t25 43zM169 43
q40 0 76.5 26.5t62.5 74.5v74h-74q-64 0 -105.5 -24.5t-41.5 -72.5v-4q0 -39 20 -56.5t62 -17.5z" />
    <glyph glyph-name="ae" unicode="&#xe6;" horiz-adv-x="725" 
d="M701 261v-31h-316v-13q0 -185 136 -185q62 0 91.5 37t40.5 107h44q-9 -95 -56 -141.5t-121 -46.5q-130 0 -185 113h-12q-65 -110 -170 -110q-61 0 -96.5 32.5t-35.5 95.5t52 103t142 40h93v1v40q0 62 -27.5 100.5t-89.5 38.5q-57 0 -92 -33q39 -10 39 -53
q0 -24 -15.5 -38t-37.5 -14q-23 0 -39.5 16t-16.5 45q0 49 50.5 85t125.5 36q125 0 155 -76q57 76 152 76q85 0 137 -61.5t52 -163.5zM510 442q-119 0 -125 -168h242v21q0 76 -32 111.5t-85 35.5zM169 43q40 0 76.5 26.5t62.5 74.5v65q0 6 -1 9h-73q-64 0 -105.5 -24.5
t-41.5 -72.5v-4q0 -39 20 -56.5t62 -17.5z" />
    <glyph glyph-name="ccedilla" unicode="&#xe7;" horiz-adv-x="433" 
d="M241 -12h-6l-8 -31q12 5 25 5q30 0 50 -21.5t20 -60.5q0 -37 -23 -59.5t-56 -22.5q-37 0 -55.5 18t-18.5 49h28q4 -38 37 -38q35 0 35 39v28q0 37 -27 37q-24 0 -28 -29h-34l16 90q-80 14 -125.5 79t-45.5 166q0 104 60 176.5t156 72.5q73 0 121 -35t48 -86
q0 -29 -15 -44t-41 -15q-23 0 -39 15.5t-16 41.5q0 36 27 52v2q-34 25 -85 25q-61 0 -99.5 -44t-38.5 -145v-32q0 -96 38 -142.5t100 -46.5q59 0 92 41t37 103h44q-6 -94 -55 -141t-118 -47z" />
    <glyph glyph-name="egrave" unicode="&#xe8;" horiz-adv-x="448" 
d="M152 700l100 -156h-40l-122 116v40h62zM424 261v-31h-321v-13q0 -185 136 -185q115 0 137 144h44q-9 -93 -59 -140.5t-118 -47.5q-102 0 -160 68.5t-58 180.5q0 106 57 177.5t153 71.5q85 0 137 -61.5t52 -163.5zM228 442q-119 0 -125 -168h247v21q0 147 -122 147z" />
    <glyph glyph-name="eacute" unicode="&#xe9;" horiz-adv-x="448" 
d="M369 700v-40l-122 -116h-40l100 156h62zM424 261v-31h-321v-13q0 -185 136 -185q115 0 137 144h44q-9 -93 -59 -140.5t-118 -47.5q-102 0 -160 68.5t-58 180.5q0 106 57 177.5t153 71.5q85 0 137 -61.5t52 -163.5zM228 442q-119 0 -125 -168h247v21q0 147 -122 147z" />
    <glyph glyph-name="ecircumflex" unicode="&#xea;" horiz-adv-x="448" 
d="M231 636h-8l-75 -92h-42l98 156h46l98 -156h-42zM424 261v-31h-321v-13q0 -185 136 -185q115 0 137 144h44q-9 -93 -59 -140.5t-118 -47.5q-102 0 -160 68.5t-58 180.5q0 106 57 177.5t153 71.5q85 0 137 -61.5t52 -163.5zM228 442q-119 0 -125 -168h247v21
q0 147 -122 147z" />
    <glyph glyph-name="edieresis" unicode="&#xeb;" horiz-adv-x="448" 
d="M148 571q-21 0 -36 15t-15 36t15 36t36 15t36 -15t15 -36t-15 -36t-36 -15zM306 571q-21 0 -36 15t-15 36t15 36t36 15t36 -15t15 -36t-15 -36t-36 -15zM424 261v-31h-321v-13q0 -185 136 -185q115 0 137 144h44q-9 -93 -59 -140.5t-118 -47.5q-102 0 -160 68.5
t-58 180.5q0 106 57 177.5t153 71.5q85 0 137 -61.5t52 -163.5zM228 442q-119 0 -125 -168h247v21q0 147 -122 147z" />
    <glyph glyph-name="igrave" unicode="&#xec;" horiz-adv-x="298" 
d="M172 544h-40l-122 116v40h62zM280 0h-262v44h59q40 0 40 40v306q0 40 -40 40h-52v44h156v-390q0 -40 40 -40h59v-44z" />
    <glyph glyph-name="iacute" unicode="&#xed;" horiz-adv-x="298" 
d="M167 544h-40l100 156h62v-40zM280 0h-262v44h59q40 0 40 40v306q0 40 -40 40h-52v44h156v-390q0 -40 40 -40h59v-44z" />
    <glyph glyph-name="icircumflex" unicode="&#xee;" horiz-adv-x="298" 
d="M68 544h-42l98 156h46l98 -156h-42l-75 92h-8zM280 0h-262v44h59q40 0 40 40v306q0 40 -40 40h-52v44h156v-390q0 -40 40 -40h59v-44z" />
    <glyph glyph-name="idieresis" unicode="&#xef;" horiz-adv-x="298" 
d="M68 571q-21 0 -36 15t-15 36t15 36t36 15t36 -15t15 -36t-15 -36t-36 -15zM226 571q-21 0 -36 15t-15 36t15 36t36 15t36 -15t15 -36t-15 -36t-36 -15zM280 0h-262v44h59q40 0 40 40v306q0 40 -40 40h-52v44h156v-390q0 -40 40 -40h59v-44z" />
    <glyph glyph-name="eth" unicode="&#xf0;" horiz-adv-x="464" 
d="M400 681l-101 -61q140 -116 140 -322q0 -146 -57 -228t-163 -82q-88 0 -141 64.5t-53 166.5q0 101 50 166t131 65q58 0 103 -32t58 -85l6 2q-1 161 -115 261l-147 -89l-18 31l135 81q-58 42 -131 63l14 30q91 -21 157 -68l114 68zM335 209v20q0 176 -115 176
q-117 0 -117 -176v-20q0 -177 117 -177q115 0 115 177z" />
    <glyph glyph-name="ntilde" unicode="&#xf1;" horiz-adv-x="555" 
d="M351 562q-33 0 -60 18.5t-50.5 37t-46.5 18.5q-27 0 -43 -18.5t-21 -49.5h-23q5 62 28.5 93t72.5 31q32 0 57.5 -18.5t48.5 -37t51 -18.5q27 0 43 18.5t21 49.5h23q-5 -62 -28.5 -93t-72.5 -31zM230 0h-212v44h39q40 0 40 40v306q0 40 -40 40h-39v44h136v-114h7
q15 47 60.5 86.5t105.5 39.5q58 0 94.5 -40t36.5 -113v-249q0 -40 40 -40h39v-44h-212v44h29q40 0 40 40v249q0 44 -22.5 69.5t-64.5 25.5q-44 0 -84.5 -37t-61.5 -98v-209q0 -40 40 -40h29v-44z" />
    <glyph glyph-name="ograve" unicode="&#xf2;" horiz-adv-x="472" 
d="M261 544h-40l-122 116v40h62zM236 -12q-90 0 -150.5 72.5t-60.5 176.5t60.5 176.5t150.5 72.5t150.5 -72.5t60.5 -176.5t-60.5 -176.5t-150.5 -72.5zM236 32q60 0 96.5 46.5t36.5 142.5v32q0 189 -133 189t-133 -189v-32q0 -96 36.5 -142.5t96.5 -46.5z" />
    <glyph glyph-name="oacute" unicode="&#xf3;" horiz-adv-x="472" 
d="M256 544h-40l100 156h62v-40zM236 -12q-90 0 -150.5 72.5t-60.5 176.5t60.5 176.5t150.5 72.5t150.5 -72.5t60.5 -176.5t-60.5 -176.5t-150.5 -72.5zM236 32q60 0 96.5 46.5t36.5 142.5v32q0 189 -133 189t-133 -189v-32q0 -96 36.5 -142.5t96.5 -46.5z" />
    <glyph glyph-name="ocircumflex" unicode="&#xf4;" horiz-adv-x="472" 
d="M157 544h-42l98 156h46l98 -156h-42l-75 92h-8zM236 -12q-90 0 -150.5 72.5t-60.5 176.5t60.5 176.5t150.5 72.5t150.5 -72.5t60.5 -176.5t-60.5 -176.5t-150.5 -72.5zM236 32q60 0 96.5 46.5t36.5 142.5v32q0 189 -133 189t-133 -189v-32q0 -96 36.5 -142.5t96.5 -46.5z
" />
    <glyph glyph-name="otilde" unicode="&#xf5;" horiz-adv-x="472" 
d="M307 562q-33 0 -60 18.5t-50.5 37t-46.5 18.5q-27 0 -43 -18.5t-21 -49.5h-23q5 62 28.5 93t72.5 31q32 0 57.5 -18.5t48.5 -37t51 -18.5q27 0 43 18.5t21 49.5h23q-5 -62 -28.5 -93t-72.5 -31zM236 -12q-90 0 -150.5 72.5t-60.5 176.5t60.5 176.5t150.5 72.5
t150.5 -72.5t60.5 -176.5t-60.5 -176.5t-150.5 -72.5zM236 32q60 0 96.5 46.5t36.5 142.5v32q0 189 -133 189t-133 -189v-32q0 -96 36.5 -142.5t96.5 -46.5z" />
    <glyph glyph-name="odieresis" unicode="&#xf6;" horiz-adv-x="472" 
d="M157 571q-21 0 -36 15t-15 36t15 36t36 15t36 -15t15 -36t-15 -36t-36 -15zM315 571q-21 0 -36 15t-15 36t15 36t36 15t36 -15t15 -36t-15 -36t-36 -15zM236 -12q-90 0 -150.5 72.5t-60.5 176.5t60.5 176.5t150.5 72.5t150.5 -72.5t60.5 -176.5t-60.5 -176.5
t-150.5 -72.5zM236 32q60 0 96.5 46.5t36.5 142.5v32q0 189 -133 189t-133 -189v-32q0 -96 36.5 -142.5t96.5 -46.5z" />
    <glyph glyph-name="oslash" unicode="&#xf8;" horiz-adv-x="482" 
d="M366 524l-25 -69q49 -32 77.5 -90.5t28.5 -127.5q0 -104 -60.5 -176.5t-150.5 -72.5q-30 0 -62 10l-22 -60l-32 12l23 62q-54 30 -86 90.5t-32 134.5q0 104 60.5 176.5t150.5 72.5q39 0 74 -15l24 65zM103 253v-32q0 -117 56 -163l136 372q-26 12 -59 12
q-133 0 -133 -189zM369 221v32q0 111 -45 156l-135 -369q24 -8 47 -8q60 0 96.5 46.5t36.5 142.5z" />
    <glyph glyph-name="ugrave" unicode="&#xf9;" horiz-adv-x="559" 
d="M284 544h-40l-122 116v40h62zM234 -12q-141 0 -141 153v249q0 40 -40 40h-39v44h143v-345q0 -41 27.5 -62.5t67.5 -21.5q36 0 71 27t58 73q17 33 17 90v155q0 40 -40 40h-39v44h143v-390q0 -40 40 -40h39v-44h-126l-10 106h-7q-62 -118 -164 -118z" />
    <glyph glyph-name="uacute" unicode="&#xfa;" horiz-adv-x="559" 
d="M279 544h-40l100 156h62v-40zM234 -12q-141 0 -141 153v249q0 40 -40 40h-39v44h143v-345q0 -41 27.5 -62.5t67.5 -21.5q36 0 71 27t58 73q17 33 17 90v155q0 40 -40 40h-39v44h143v-390q0 -40 40 -40h39v-44h-126l-10 106h-7q-62 -118 -164 -118z" />
    <glyph glyph-name="ucircumflex" unicode="&#xfb;" horiz-adv-x="559" 
d="M180 544h-42l98 156h46l98 -156h-42l-75 92h-8zM234 -12q-141 0 -141 153v249q0 40 -40 40h-39v44h143v-345q0 -41 27.5 -62.5t67.5 -21.5q36 0 71 27t58 73q17 33 17 90v155q0 40 -40 40h-39v44h143v-390q0 -40 40 -40h39v-44h-126l-10 106h-7q-62 -118 -164 -118z" />
    <glyph glyph-name="udieresis" unicode="&#xfc;" horiz-adv-x="559" 
d="M180 571q-21 0 -36 15t-15 36t15 36t36 15t36 -15t15 -36t-15 -36t-36 -15zM338 571q-21 0 -36 15t-15 36t15 36t36 15t36 -15t15 -36t-15 -36t-36 -15zM234 -12q-141 0 -141 153v249q0 40 -40 40h-39v44h143v-345q0 -41 27.5 -62.5t67.5 -21.5q36 0 71 27t58 73
q17 33 17 90v155q0 40 -40 40h-39v44h143v-390q0 -40 40 -40h39v-44h-126l-10 106h-7q-62 -118 -164 -118z" />
    <glyph glyph-name="yacute" unicode="&#xfd;" horiz-adv-x="481" 
d="M278 544h-40l100 156h62v-40zM122 -190q-45 0 -77.5 30t-32.5 70q0 25 14.5 38t33.5 13q18 0 31 -11t13 -32q0 -32 -35 -43v-6q17 -19 53 -19q44 0 71.5 43.5t27.5 97.5q0 57 -24 118l-109 275q-19 46 -68 46h-13v44h216v-44h-33q-23 0 -31.5 -13.5t-0.5 -35.5l105 -265
h4l84 266q7 22 -2 35t-32 13h-31v44h188v-44h-11q-51 0 -66 -48l-131 -419q-25 -79 -60 -116t-84 -37z" />
    <glyph glyph-name="thorn" unicode="&#xfe;" horiz-adv-x="525" 
d="M272 -190h-252v44h39q19 0 29.5 9t10.5 23v730q0 40 -40 40h-39v44h144v-298h3q40 84 135 84q93 0 145 -74.5t52 -177.5q0 -97 -53 -171.5t-144 -74.5q-93 0 -132 75h-7v-177q0 -14 10.5 -23t29.5 -9h69v-44zM288 32q59 0 96 50t37 139v19q0 95 -35 148.5t-98 53.5
q-62 0 -93 -52.5t-31 -149.5v-19q0 -90 33 -139.5t91 -49.5z" />
    <glyph glyph-name="ydieresis" unicode="&#xff;" horiz-adv-x="481" 
d="M179 571q-21 0 -36 15t-15 36t15 36t36 15t36 -15t15 -36t-15 -36t-36 -15zM337 571q-21 0 -36 15t-15 36t15 36t36 15t36 -15t15 -36t-15 -36t-36 -15zM122 -190q-45 0 -77.5 30t-32.5 70q0 25 14.5 38t33.5 13q18 0 31 -11t13 -32q0 -32 -35 -43v-6q17 -19 53 -19
q44 0 71.5 43.5t27.5 97.5q0 57 -24 118l-109 275q-19 46 -68 46h-13v44h216v-44h-33q-23 0 -31.5 -13.5t-0.5 -35.5l105 -265h4l84 266q7 22 -2 35t-32 13h-31v44h188v-44h-11q-51 0 -66 -48l-131 -419q-25 -79 -60 -116t-84 -37z" />
    <glyph glyph-name="dotlessi" unicode="&#x131;" horiz-adv-x="298" 
d="M280 0h-262v44h59q40 0 40 40v306q0 40 -40 40h-52v44h156v-390q0 -40 40 -40h59v-44z" />
    <glyph glyph-name="Lslash" unicode="&#x141;" horiz-adv-x="514" 
d="M445 200v84h44v-284h-464v44h47q40 0 40 40v146l-87 -50v46l87 50v340q0 40 -40 40h-47v44h238v-44h-47q-40 0 -40 -40v-303l233 133v-46l-233 -133v-183q0 -40 40 -40h69q160 0 160 156z" />
    <glyph glyph-name="lslash" unicode="&#x142;" horiz-adv-x="296" 
d="M276 438v-48l-107 -75v-231q0 -40 40 -40h39v-44h-222v44h39q40 0 40 40v187l-87 -61v48l87 61v297q0 40 -40 40h-39v44h143v-337z" />
    <glyph glyph-name="OE" unicode="&#x152;" horiz-adv-x="881" 
d="M856 700v-224h-44v24q0 79 -38 117.5t-122 38.5h-206q51 -44 82 -114t37 -156h50q75 0 75 78v20h44v-240h-44v20q0 78 -75 78h-49q-1 -94 -33.5 -172.5t-87.5 -125.5h209q84 0 121 38t37 118v24h44v-224h-487q-33 -12 -71 -12q-116 0 -192 104t-76 258q0 153 77 257.5
t191 104.5q38 0 72 -12h486zM480 320v60q0 82 -15.5 141t-43 89.5t-57.5 44t-66 13.5t-66 -13.5t-57.5 -44t-43 -89.5t-15.5 -141v-60q0 -82 15.5 -141t43 -89.5t57.5 -44t66 -13.5t66 13.5t57.5 44t43 89.5t15.5 141z" />
    <glyph glyph-name="oe" unicode="&#x153;" horiz-adv-x="788" 
d="M764 261v-31h-321v-13q0 -185 136 -185q115 0 137 144h44q-9 -93 -59 -140.5t-118 -47.5q-123 0 -181 98q-29 -45 -73 -71.5t-95 -26.5q-89 0 -149 72.5t-60 176.5t60 176.5t149 72.5q107 0 169 -100q57 100 172 100q85 0 137 -61.5t52 -163.5zM365 221v32
q0 189 -131 189t-131 -189v-32q0 -96 36 -142.5t95 -46.5t95 46.5t36 142.5zM568 442q-119 0 -125 -168h247v21q0 147 -122 147z" />
    <glyph glyph-name="Scaron" unicode="&#x160;" horiz-adv-x="517" 
d="M283 770h-46l-98 156h42l75 -92h8l75 92h42zM276 -12q-64 0 -104.5 17.5t-77.5 58.5l-12 -11v-53h-44v270h44l4 -34q24 -204 179 -204q60 0 101.5 31.5t41.5 94.5q0 52 -35.5 86t-104.5 67l-79 38q-140 67 -140 176q0 88 53.5 137t140.5 49q60 0 97 -20.5t68 -61.5l16 11
v60h44v-249h-44l-3 11q-13 47 -25 78t-32.5 63t-50.5 48t-69 16q-52 0 -88.5 -31t-36.5 -86q0 -87 106 -138l101 -49q153 -74 153 -192q0 -90 -58 -136.5t-145 -46.5z" />
    <glyph glyph-name="scaron" unicode="&#x161;" horiz-adv-x="407" 
d="M215 544h-46l-98 156h42l75 -92h8l75 92h42zM221 -12q-44 0 -84.5 18t-58.5 44l-7 -7v-43h-42v182h42l6 -33q10 -56 48.5 -86.5t92.5 -30.5q39 0 65.5 19.5t26.5 54.5q0 65 -118 111l-28 11q-36 14 -53.5 22.5t-39.5 23.5t-31 35t-9 48q0 55 41 92t112 37q86 0 135 -58
l7 7v39h42v-168h-42l-8 30q-27 106 -131 106q-42 0 -66.5 -19t-24.5 -48q0 -31 23.5 -50.5t75.5 -38.5l35 -13q75 -28 111.5 -59.5t36.5 -87.5q0 -58 -44.5 -98t-112.5 -40z" />
    <glyph glyph-name="Ydieresis" unicode="&#x178;" horiz-adv-x="593" 
d="M237 797q-21 0 -36 15t-15 36t15 36t36 15t36 -15t15 -36t-15 -36t-36 -15zM395 797q-21 0 -36 15t-15 36t15 36t36 15t36 -15t15 -36t-15 -36t-36 -15zM353 656v44h226v-44h-34q-44 0 -62 -44l-140 -356v-172q0 -40 40 -40h62v-44h-268v44h62q40 0 40 40v161l-169 367
q-21 44 -61 44h-35v44h260v-44h-63q-23 0 -32 -12.5t0 -33.5l132 -285h11l113 285q9 22 -0.5 34t-31.5 12h-50z" />
    <glyph glyph-name="Zcaron" unicode="&#x17d;" horiz-adv-x="535" 
d="M293 770h-46l-98 156h42l75 -92h8l75 92h42zM510 0h-485v44l394 612h-172q-78 0 -118 -41t-40 -119v-24h-44v228h449v-44l-393 -612h205q78 0 119 41t41 119v24h44v-228z" />
    <glyph glyph-name="zcaron" unicode="&#x17e;" horiz-adv-x="409" 
d="M228 544h-46l-98 156h42l75 -92h8l75 92h42zM386 0h-366v48l285 378h-198q-40 0 -40 -40v-84h-46v172h368v-42l-291 -384h202q40 0 40 40v84h46v-172z" />
    <glyph glyph-name="circumflex" unicode="&#x2c6;" horiz-adv-x="282" 
d="M62 544h-42l98 156h46l98 -156h-42l-75 92h-8z" />
    <glyph glyph-name="caron" unicode="&#x2c7;" horiz-adv-x="282" 
d="M164 544h-46l-98 156h42l75 -92h8l75 92h42z" />
    <glyph glyph-name="breve" unicode="&#x2d8;" horiz-adv-x="250" 
d="M130 554q-54 0 -87 37t-33 99h42q0 -33 20 -57.5t58 -24.5t58 24.5t20 57.5h42q0 -62 -33 -99t-87 -37z" />
    <glyph glyph-name="dotaccent" unicode="&#x2d9;" horiz-adv-x="314" 
d="M157 562q-23 0 -40 17t-17 40t17 40t40 17t40 -17t17 -40t-17 -40t-40 -17z" />
    <glyph glyph-name="ring" unicode="&#x2da;" horiz-adv-x="280" 
d="M140 547q-45 0 -77.5 34.5t-32.5 80.5t32.5 80.5t77.5 34.5t77.5 -34.5t32.5 -80.5t-32.5 -80.5t-77.5 -34.5zM140 583q54 0 54 64v30q0 64 -54 64t-54 -64v-30q0 -64 54 -64z" />
    <glyph glyph-name="ogonek" unicode="&#x2db;" horiz-adv-x="314" 
d="M146 -202q-34 0 -58 23t-24 63q0 49 33.5 85t89.5 56l19 -25q-34 -10 -59 -36.5t-25 -68.5q0 -51 52 -51q19 0 35 10v-32q-27 -24 -63 -24z" />
    <glyph glyph-name="tilde" unicode="&#x2dc;" horiz-adv-x="385" 
d="M264 562q-33 0 -60 18.5t-50.5 37t-46.5 18.5q-27 0 -43 -18.5t-21 -49.5h-23q5 62 28.5 93t72.5 31q32 0 57.5 -18.5t48.5 -37t51 -18.5q27 0 43 18.5t21 49.5h23q-5 -62 -28.5 -93t-72.5 -31z" />
    <glyph glyph-name="hungarumlaut" unicode="&#x2dd;" horiz-adv-x="334" 
d="M70 544h-40l90 156h52v-40zM202 544h-40l90 156h52v-40z" />
    <glyph glyph-name="gravecomb" unicode="&#x300;" horiz-adv-x="0" 
d="M-30 544h-40l-122 116v40h62z" />
    <glyph glyph-name="acutecomb" unicode="&#x301;" horiz-adv-x="0" 
d="M-152 544h-40l100 156h62v-40z" />
    <glyph glyph-name="uni0302" unicode="&#x302;" horiz-adv-x="0" 
d="M-220 544h-42l98 156h46l98 -156h-42l-75 92h-8z" />
    <glyph glyph-name="tildecomb" unicode="&#x303;" horiz-adv-x="0" 
d="M-121 562q-33 0 -60 18.5t-50.5 37t-46.5 18.5q-27 0 -43 -18.5t-21 -49.5h-23q5 62 28.5 93t72.5 31q32 0 57.5 -18.5t48.5 -37t51 -18.5q27 0 43 18.5t21 49.5h23q-5 -62 -28.5 -93t-72.5 -31z" />
    <glyph glyph-name="uni0306" unicode="&#x306;" horiz-adv-x="0" 
d="M-130 554q-54 0 -87 37t-33 99h42q0 -33 20 -57.5t58 -24.5t58 24.5t20 57.5h42q0 -62 -33 -99t-87 -37z" />
    <glyph glyph-name="uni0307" unicode="&#x307;" horiz-adv-x="0" 
d="M-157 562q-23 0 -40 17t-17 40t17 40t40 17t40 -17t17 -40t-17 -40t-40 -17z" />
    <glyph glyph-name="uni0308" unicode="&#x308;" horiz-adv-x="0" 
d="M-239 571q-21 0 -36 15t-15 36t15 36t36 15t36 -15t15 -36t-15 -36t-36 -15zM-81 571q-21 0 -36 15t-15 36t15 36t36 15t36 -15t15 -36t-15 -36t-36 -15z" />
    <glyph glyph-name="uni030A" unicode="&#x30a;" horiz-adv-x="0" 
d="M-140 542q-45 0 -77.5 34.5t-32.5 80.5t32.5 80.5t77.5 34.5t77.5 -34.5t32.5 -80.5t-32.5 -80.5t-77.5 -34.5zM-140 578q54 0 54 64v30q0 64 -54 64t-54 -64v-30q0 -64 54 -64z" />
    <glyph glyph-name="uni030B" unicode="&#x30b;" horiz-adv-x="0" 
d="M-264 544h-40l90 156h52v-40zM-132 544h-40l90 156h52v-40z" />
    <glyph glyph-name="uni030C" unicode="&#x30c;" horiz-adv-x="0" 
d="M-118 544h-46l-98 156h42l75 -92h8l75 92h42z" />
    <glyph glyph-name="uni0327" unicode="&#x327;" horiz-adv-x="0" 
d="M-70 -38q30 0 50 -21.5t20 -60.5q0 -37 -23 -59.5t-56 -22.5q-37 0 -55.5 18t-18.5 49h28q4 -38 37 -38q35 0 35 39v28q0 37 -27 37q-24 0 -28 -29h-34l22 123h42l-17 -68q12 5 25 5z" />
    <glyph glyph-name="uni0328" unicode="&#x328;" horiz-adv-x="0" 
d="M-158 -202q-34 0 -58 23t-24 63q0 49 33.5 85t89.5 56l19 -25q-34 -10 -59 -36.5t-25 -68.5q0 -51 52 -51q19 0 35 10v-32q-27 -24 -63 -24z" />
    <glyph glyph-name="endash" unicode="&#x2013;" horiz-adv-x="526" 
d="M512 257h-498v48h498v-48z" />
    <glyph glyph-name="emdash" unicode="&#x2014;" horiz-adv-x="726" 
d="M712 257h-698v48h698v-48z" />
    <glyph glyph-name="quoteleft" unicode="&#x2018;" horiz-adv-x="158" 
d="M112 699l16 9l16 -28l-13 -7q-52 -30 -52 -78q23 0 37 -14.5t14 -36.5q0 -23 -15 -37t-35 -14q-24 0 -39 18.5t-15 51.5q0 87 86 136z" />
    <glyph glyph-name="quoteright" unicode="&#x2019;" horiz-adv-x="158" 
d="M46 502l-16 -9l-16 28l13 7q52 30 52 78q-23 0 -37 14.5t-14 36.5q0 23 15 37t35 14q24 0 39 -18.5t15 -51.5q0 -87 -86 -136z" />
    <glyph glyph-name="quotesinglbase" unicode="&#x201a;" horiz-adv-x="162" 
d="M46 -108l-16 -9l-16 28l13 7q52 30 52 78q-23 0 -37 14.5t-14 36.5q0 23 15 37t35 14q24 0 39 -18.5t15 -51.5q0 -87 -86 -136z" />
    <glyph glyph-name="quotedblleft" unicode="&#x201c;" horiz-adv-x="309" 
d="M112 699l16 9l16 -28l-13 -7q-52 -30 -52 -78q23 0 37 -14.5t14 -36.5q0 -23 -15 -37t-35 -14q-24 0 -39 18.5t-15 51.5q0 87 86 136zM263 699l16 9l16 -28l-13 -7q-52 -30 -52 -78q23 0 37 -14.5t14 -36.5q0 -23 -15 -37t-35 -14q-24 0 -39 18.5t-15 51.5q0 87 86 136z
" />
    <glyph glyph-name="quotedblright" unicode="&#x201d;" horiz-adv-x="309" 
d="M46 502l-16 -9l-16 28l13 7q52 30 52 78q-23 0 -37 14.5t-14 36.5q0 23 15 37t35 14q24 0 39 -18.5t15 -51.5q0 -87 -86 -136zM197 502l-16 -9l-16 28l13 7q52 30 52 78q-23 0 -37 14.5t-14 36.5q0 23 15 37t35 14q24 0 39 -18.5t15 -51.5q0 -87 -86 -136z" />
    <glyph glyph-name="quotedblbase" unicode="&#x201e;" horiz-adv-x="313" 
d="M46 -108l-16 -9l-16 28l13 7q52 30 52 78q-23 0 -37 14.5t-14 36.5q0 23 15 37t35 14q24 0 39 -18.5t15 -51.5q0 -87 -86 -136zM197 -108l-16 -9l-16 28l13 7q52 30 52 78q-23 0 -37 14.5t-14 36.5q0 23 15 37t35 14q24 0 39 -18.5t15 -51.5q0 -87 -86 -136z" />
    <glyph glyph-name="bullet" unicode="&#x2022;" horiz-adv-x="256" 
d="M128 242q-45 0 -76.5 31.5t-31.5 76.5t31.5 76.5t76.5 31.5t76.5 -31.5t31.5 -76.5t-31.5 -76.5t-76.5 -31.5z" />
    <glyph glyph-name="ellipsis" unicode="&#x2026;" horiz-adv-x="542" 
d="M91 -4q-22 0 -36.5 14.5t-14.5 36.5t14.5 36.5t36.5 14.5t36.5 -14.5t14.5 -36.5t-14.5 -36.5t-36.5 -14.5zM271 -4q-22 0 -36.5 14.5t-14.5 36.5t14.5 36.5t36.5 14.5t36.5 -14.5t14.5 -36.5t-14.5 -36.5t-36.5 -14.5zM451 -4q-22 0 -36.5 14.5t-14.5 36.5t14.5 36.5
t36.5 14.5t36.5 -14.5t14.5 -36.5t-14.5 -36.5t-36.5 -14.5z" />
    <glyph glyph-name="guilsinglleft" unicode="&#x2039;" horiz-adv-x="250" 
d="M230 40h-31l-171 215v26l171 215h31l-134 -225v-6z" />
    <glyph glyph-name="guilsinglright" unicode="&#x203a;" horiz-adv-x="250" 
d="M222 255l-171 -215h-31l134 225v6l-134 225h31l171 -215v-26z" />
    <glyph glyph-name="Euro" unicode="&#x20ac;" horiz-adv-x="586" 
d="M516 226h44q-5 -125 -67.5 -181.5t-150.5 -56.5q-97 0 -167.5 73.5t-90.5 196.5h-60v42h54q-2 32 -2 50t2 50h-54v42h60q22 121 94 195.5t171 74.5q96 0 150 -64l14 9v43h44v-258h-44q-35 127 -67.5 176.5t-103.5 49.5q-63 0 -114 -53t-63 -173h232l-8 -42h-227v-20v-60
v-20h209l-8 -42h-198q18 -226 183 -226q73 0 118.5 49t49.5 145z" />
    <glyph glyph-name="trademark" unicode="&#x2122;" horiz-adv-x="732" 
d="M257 311h-164v29h39q22 0 22 22v287q0 22 -22 22h-3q-41 0 -55.5 -17t-14.5 -57v-25h-29v128h290v-128h-29v25q0 40 -15 57t-56 17h-2q-23 0 -23 -22v-287q0 -22 23 -22h39v-29zM467 311h-123v29h26q22 0 22 22v287q0 22 -22 22h-26v29h101l68 -307h3l90 307h99v-29h-27
q-22 0 -22 -22v-287q0 -22 22 -22h27v-29h-136v29h26q23 0 23 22v270h-4l-94 -321h-27l-71 321h-3v-270q0 -22 22 -22h26v-29z" />
    <glyph glyph-name="arrowleft" unicode="&#x2190;" horiz-adv-x="532" 
d="M104 321l116 -160l-23 -20l-177 189v40l177 189l23 -30l-116 -150v-9h408v-40h-408v-9z" />
    <glyph glyph-name="arrowright" unicode="&#x2192;" horiz-adv-x="532" 
d="M335 141l-23 20l116 160v9h-408v40h408v9l-116 150l23 30l177 -189v-40z" />
    <glyph glyph-name="minus" unicode="&#x2212;" horiz-adv-x="406" 
d="M392 257h-378v48h378v-48z" />
    <glyph glyph-name="f_b" horiz-adv-x="858" 
d="M310 0h-262v44h39q40 0 40 40v306q0 40 -40 40h-75v44h55q60 0 60 60v12q0 96 50.5 151t144.5 55q35 0 74 -14.5t57 -37.5h43v-292h7q14 32 48 55t84 23q63 0 109.5 -37t67.5 -91.5t21 -117.5q0 -106 -52 -179t-154 -73q-51 0 -84.5 25t-46.5 67h-7l-35 -80h-22v589
q0 63 -32.5 93t-78.5 30q-56 0 -93 -38.5t-37 -107.5v-92h149v-44h-109q-40 0 -40 -40v-306q0 -40 40 -40h79v-44zM626 32q57 0 93 49.5t36 139.5v26q0 92 -34.5 143.5t-94.5 51.5q-63 0 -96 -50.5t-33 -144.5v-26q0 -92 34.5 -140.5t94.5 -48.5z" />
    <glyph glyph-name="f_h" horiz-adv-x="894" 
d="M837 44h39v-44h-212v44h29q40 0 40 40v249q0 44 -22.5 69.5t-64.5 25.5q-45 0 -87 -37.5t-63 -97.5v-209q0 -40 40 -40h39v-44h-222v44h39q40 0 40 40v505q0 63 -32.5 93t-78.5 30q-56 0 -93 -38.5t-37 -107.5v-92h149v-44h-109q-40 0 -40 -40v-306q0 -40 40 -40h79v-44
h-262v44h39q40 0 40 40v306q0 40 -40 40h-75v44h55q60 0 60 60v12q0 96 50.5 151t144.5 55q35 0 74 -14.5t57 -37.5h43v-320h7q15 40 58 73t101 33q66 0 100.5 -43.5t34.5 -119.5v-239q0 -40 40 -40z" />
    <glyph glyph-name="f_k" horiz-adv-x="881" 
d="M838 44h23v-44h-222v44h25q20 0 25.5 11.5t-6.5 28.5l-105 149h-82v-149q0 -40 40 -40h39v-44h-222v44h39q40 0 40 40v505q0 63 -32.5 93t-78.5 30q-56 0 -93 -38.5t-37 -107.5v-92h149v-44h-109q-40 0 -40 -40v-306q0 -40 40 -40h79v-44h-262v44h39q40 0 40 40v306
q0 40 -40 40h-75v44h55q60 0 60 60v12q0 96 50.5 151t144.5 55q35 0 74 -14.5t57 -37.5h43v-423h47l101 110q13 14 9 28.5t-21 14.5h-25v44h226v-44h-34q-57 0 -90 -37l-94 -102l150 -209q27 -38 73 -38z" />
    <glyph glyph-name="zero.tf" 
d="M290 -12q-101 0 -162.5 103t-61.5 259t62 259t162 103q101 0 162.5 -103t61.5 -259t-62 -259t-162 -103zM290 32q44 0 71.5 23.5t44 88.5t16.5 176v60q0 111 -16.5 176t-44 88.5t-71.5 23.5t-71.5 -23.5t-44 -88.5t-16.5 -176v-60q0 -111 16.5 -176t44 -88.5t71.5 -23.5z
" />
    <glyph glyph-name="one.tf" 
d="M480 0h-368v44h117q40 0 40 40v434q0 40 -40 40h-117v44h97q50 0 65 23.5t15 74.5h44v-616q0 -40 40 -40h107v-44z" />
    <glyph glyph-name="two.tf" 
d="M168 64h208q62 0 62 70h44v-134h-382v44l194 251q102 132 102 240q0 65 -33.5 99t-82.5 34q-68 0 -103 -38v-10q37 -15 37 -57q0 -27 -16 -44t-41 -17q-26 0 -42.5 18t-16.5 49q0 55 53.5 99t140.5 44q93 0 142.5 -51t49.5 -130q0 -121 -88 -214q-67 -71 -159 -170
l-69 -75v-8z" />
    <glyph glyph-name="three.tf" 
d="M375 369v-7q64 -12 104.5 -56t40.5 -111q0 -94 -62.5 -150.5t-150.5 -56.5q-87 0 -142 49t-55 123q0 33 17.5 51.5t43.5 18.5q23 0 37 -15t14 -35q0 -27 -15.5 -42.5t-42.5 -15.5l-4 -5q12 -35 51.5 -60t89.5 -25q55 0 93 34t38 107v24q0 67 -37 103t-104 36h-38v52h48
q50 0 87 38.5t37 93.5v24q0 56 -34 90t-95 34q-46 0 -81 -21.5t-46 -52.5l4 -5q27 0 42.5 -15.5t15.5 -42.5q0 -20 -13.5 -35t-37.5 -15q-26 0 -43.5 18.5t-17.5 51.5q0 70 50 115.5t133 45.5q87 0 144 -49t57 -128q0 -118 -128 -166z" />
    <glyph glyph-name="four.tf" 
d="M513 232v-44h-87v-104q0 -40 40 -40h47v-44h-238v44h47q40 0 40 40v104h-277v44l307 468h34v-468h87zM355 564l-212 -325l7 -7h212v325z" />
    <glyph glyph-name="five.tf" 
d="M303 446q91 0 145.5 -65.5t54.5 -162.5q0 -96 -64 -163t-162 -67q-79 0 -131 41t-52 107q0 30 18 49.5t47 19.5q22 0 39 -15t17 -40q0 -45 -52 -60l-6 -6q9 -21 44.5 -36.5t74.5 -15.5q57 0 100 44t43 132v20q0 83 -36.5 123t-94.5 40q-39 0 -65.5 -15.5t-49.5 -53.5
l-49 11l35 303l7 64h208q22 0 36 14t14 36h44v-114h-261l-33 -243l7 -3q45 56 122 56z" />
    <glyph glyph-name="six.tf" 
d="M291 -12q-116 0 -170.5 88t-54.5 241q0 176 65.5 285.5t181.5 109.5q70 0 118 -37t48 -85q0 -29 -15.5 -46t-40.5 -17q-23 0 -38.5 15t-15.5 37q0 35 30 54l3 6q-26 29 -89 29q-84 0 -129 -84t-46 -229l9 -2q13 41 55 69t102 28q94 0 147.5 -63.5t53.5 -158.5
q0 -99 -57.5 -169.5t-156.5 -70.5zM290 32q61 0 96 49.5t35 137.5t-35 137.5t-96 49.5t-98.5 -50t-37.5 -137t37.5 -137t98.5 -50z" />
    <glyph glyph-name="seven.tf" 
d="M278 -12q-39 0 -39 56q0 92 36.5 229.5t91.5 237.5l66 120l-4 5h-202q-70 0 -70 -86h-44v150h388v-34l-93 -171q-42 -76 -63.5 -168t-24.5 -146t-3 -137q0 -56 -39 -56z" />
    <glyph glyph-name="eight.tf" 
d="M301 -12q-91 0 -148.5 51.5t-57.5 135.5q0 63 33 118t81 75v7q-52 24 -75 68.5t-23 90.5q0 77 50 127.5t131 50.5q74 0 123 -45.5t49 -114.5q0 -113 -93 -180v-7q50 -25 91 -70.5t41 -109.5q0 -84 -55 -140.5t-147 -56.5zM269 414l67 -32q74 69 74 164q0 59 -37 90.5
t-86 31.5q-46 0 -80 -34.5t-34 -93.5q0 -81 96 -126zM301 32q59 0 96.5 40t37.5 104q0 57 -34 89.5t-104 65.5l-53 25q-39 -25 -67 -76t-28 -100q0 -70 46.5 -109t105.5 -39z" />
    <glyph glyph-name="nine.tf" 
d="M270 -12q-70 0 -118 37t-48 85q0 29 15.5 46t40.5 17q23 0 38.5 -15t15.5 -37q0 -35 -30 -54l-3 -6q26 -29 89 -29q84 0 129 84t46 229l-9 2q-13 -41 -55 -69t-102 -28q-94 0 -147.5 63.5t-53.5 158.5q0 99 57.5 169.5t156.5 70.5q116 0 170.5 -88t54.5 -241
q0 -176 -65.5 -285.5t-181.5 -109.5zM293 294q61 0 98.5 50t37.5 137t-37.5 137t-98.5 50t-96 -49.5t-35 -137.5t35 -137.5t96 -49.5z" />
    </font>
</defs>
</svg>
